<svg height="512" viewBox="0 0 512 512" width="512" xmlns="http://www.w3.org/2000/svg"><g><g fill="#57a4ff"><path d="m424 472v24h-336v-24a40 40 0 0 1 40-40h256a40 40 0 0 1 40 40z"/><path d="m136 400c46.81-86.59 82.89-110.49 80-240h80c-2.89 129.51 33.19 153.41 80 240z"/><circle cx="256" cy="72" r="56"/></g><path d="m384 424v-24a7.97 7.97 0 0 0 -.96-3.8c-9.9-18.32-19.49-34.12-27.94-48.05-31.27-51.54-52.2-86.06-51.23-180.15h.13a24 24 0 0 0 0-48h-5.74a64 64 0 1 0 -84.52 0h-5.74a24 24 0 0 0 0 48h.13c.97 94.09-19.96 128.61-51.23 180.15-8.45 13.93-18.04 29.73-27.94 48.05a7.97 7.97 0 0 0 -.96 3.8v24a48.051 48.051 0 0 0 -48 48v24a8 8 0 0 0 8 8h336a8 8 0 0 0 8-8v-24a48.051 48.051 0 0 0 -48-48zm-176-352a48 48 0 1 1 48 48 48.051 48.051 0 0 1 -48-48zm0 80a8 8 0 0 1 0-16h96a8 8 0 0 1 0 16zm-37.42 204.44c31.51-51.94 54.51-89.86 53.55-188.44h63.74c-.96 98.58 22.04 136.5 53.55 188.44 6.77 11.17 13.73 22.64 21.02 35.56h-212.88c7.29-12.92 14.25-24.39 21.02-35.56zm-26.58 51.56h224v16h-224zm272 80h-320v-16a32.042 32.042 0 0 1 32-32h256a32.042 32.042 0 0 1 32 32z" fill="#004fac"/></g></svg>