<?xml version="1.0" encoding="UTF-8" standalone="no"?><svg xmlns="http://www.w3.org/2000/svg" xmlns:xlink="http://www.w3.org/1999/xlink" contentScriptType="application/ecmascript" contentStyleType="text/css" height="405px" preserveAspectRatio="none" style="width:172px;height:405px;" version="1.1" viewBox="0 0 172 405" width="172px" zoomAndPan="magnify"><defs><filter height="300%" id="fwrj42cnnji" width="300%" x="-1" y="-1"><feGaussianBlur result="blurOut" stdDeviation="2.0"/><feColorMatrix in="blurOut" result="blurOut2" type="matrix" values="0 0 0 0 0 0 0 0 0 0 0 0 0 0 0 0 0 0 .4 0"/><feOffset dx="4.0" dy="4.0" in="blurOut2" result="blurOut3"/><feBlend in="SourceGraphic" in2="blurOut3" mode="normal"/></filter></defs><g><text fill="#000000" font-family="sans-serif" font-size="18" lengthAdjust="spacingAndGlyphs" textLength="90" x="40" y="27.4023">act_new_6</text><ellipse cx="85" cy="41.1992" fill="#000000" filter="url(#fwrj42cnnji)" rx="10" ry="10" style="stroke: none; stroke-width: 1.0;"/><rect fill="#FEFECE" filter="url(#fwrj42cnnji)" height="34.1328" rx="12.5" ry="12.5" style="stroke: #A80036; stroke-width: 1.5;" width="68" x="51" y="71.1992"/><text fill="#000000" font-family="sans-serif" font-size="12" lengthAdjust="spacingAndGlyphs" textLength="48" x="61" y="92.8008">打开文件</text><rect fill="#FEFECE" filter="url(#fwrj42cnnji)" height="34.1328" rx="12.5" ry="12.5" style="stroke: #A80036; stroke-width: 1.5;" width="68" x="51" y="181.4668"/><text fill="#000000" font-family="sans-serif" font-size="12" lengthAdjust="spacingAndGlyphs" textLength="48" x="61" y="203.0684">读取文件</text><rect fill="#FEFECE" filter="url(#fwrj42cnnji)" height="34.1328" rx="12.5" ry="12.5" style="stroke: #A80036; stroke-width: 1.5;" width="66" x="52" y="244.6221"/><text fill="#000000" font-family="sans-serif" font-size="12" lengthAdjust="spacingAndGlyphs" textLength="46" x="62" y="266.2236">编译 dia</text><polygon fill="#FEFECE" filter="url(#fwrj42cnnji)" points="48,125.332,122,125.332,134,137.332,122,149.332,48,149.332,36,137.332,48,125.332" style="stroke: #A80036; stroke-width: 1.5;"/><text fill="#000000" font-family="sans-serif" font-size="11" lengthAdjust="spacingAndGlyphs" textLength="33" x="89" y="159.9668">有内容</text><text fill="#000000" font-family="sans-serif" font-size="11" lengthAdjust="spacingAndGlyphs" textLength="74" x="48" y="141.4893">检查文件大小 ?</text><text fill="#000000" font-family="sans-serif" font-size="11" lengthAdjust="spacingAndGlyphs" textLength="11" x="25" y="135.0117">空</text><rect fill="#FEFECE" filter="url(#fwrj42cnnji)" height="34.1328" rx="12.5" ry="12.5" style="stroke: #A80036; stroke-width: 1.5;" width="68" x="51" y="320.7549"/><text fill="#000000" font-family="sans-serif" font-size="12" lengthAdjust="spacingAndGlyphs" textLength="48" x="61" y="342.3564">关闭文件</text><ellipse cx="85" cy="384.8877" fill="#FFFFFF" filter="url(#fwrj42cnnji)" rx="10" ry="10" style="stroke: #000000; stroke-width: 1.5;"/><line style="stroke: #000000; stroke-width: 2.5;" x1="78.8128" x2="91.1872" y1="378.7005" y2="391.0749"/><line style="stroke: #000000; stroke-width: 2.5;" x1="91.1872" x2="78.8128" y1="378.7005" y2="391.0749"/><line style="stroke: #A80036; stroke-width: 1.5;" x1="85" x2="85" y1="51.1992" y2="71.1992"/><polygon fill="#A80036" points="81,61.1992,85,71.1992,89,61.1992,85,65.1992" style="stroke: #A80036; stroke-width: 1.0;"/><line style="stroke: #A80036; stroke-width: 1.5;" x1="85" x2="85" y1="215.5996" y2="244.6221"/><polygon fill="#A80036" points="81,234.6221,85,244.6221,89,234.6221,85,238.6221" style="stroke: #A80036; stroke-width: 1.0;"/><line style="stroke: #A80036; stroke-width: 1.5;" x1="85" x2="85" y1="149.332" y2="181.4668"/><polygon fill="#A80036" points="81,171.4668,85,181.4668,89,171.4668,85,175.4668" style="stroke: #A80036; stroke-width: 1.0;"/><line style="stroke: #A80036; stroke-width: 1.5;" x1="85" x2="85" y1="278.7549" y2="288.7549"/><line style="stroke: #A80036; stroke-width: 1.5;" x1="85" x2="146" y1="288.7549" y2="288.7549"/><polygon fill="#A80036" points="142,224.6221,146,214.6221,150,224.6221,146,220.6221" style="stroke: #A80036; stroke-width: 1.5;"/><line style="stroke: #A80036; stroke-width: 1.5;" x1="146" x2="146" y1="137.332" y2="288.7549"/><line style="stroke: #A80036; stroke-width: 1.5;" x1="146" x2="134" y1="137.332" y2="137.332"/><polygon fill="#A80036" points="144,133.332,134,137.332,144,141.332,140,137.332" style="stroke: #A80036; stroke-width: 1.0;"/><line style="stroke: #A80036; stroke-width: 1.5;" x1="36" x2="24" y1="137.332" y2="137.332"/><polygon fill="#A80036" points="20,210.6221,24,220.6221,28,210.6221,24,214.6221" style="stroke: #A80036; stroke-width: 1.5;"/><line style="stroke: #A80036; stroke-width: 1.5;" x1="24" x2="24" y1="137.332" y2="300.7549"/><line style="stroke: #A80036; stroke-width: 1.5;" x1="24" x2="85" y1="300.7549" y2="300.7549"/><line style="stroke: #A80036; stroke-width: 1.5;" x1="85" x2="85" y1="300.7549" y2="320.7549"/><polygon fill="#A80036" points="81,310.7549,85,320.7549,89,310.7549,85,314.7549" style="stroke: #A80036; stroke-width: 1.0;"/><line style="stroke: #A80036; stroke-width: 1.5;" x1="85" x2="85" y1="105.332" y2="125.332"/><polygon fill="#A80036" points="81,115.332,85,125.332,89,115.332,85,119.332" style="stroke: #A80036; stroke-width: 1.0;"/><line style="stroke: #A80036; stroke-width: 1.5;" x1="85" x2="85" y1="354.8877" y2="374.8877"/><polygon fill="#A80036" points="81,364.8877,85,374.8877,89,364.8877,85,368.8877" style="stroke: #A80036; stroke-width: 1.0;"/><!--
@startuml
title act_new_6
start
:打开文件;
while (检查文件大小 ?) is (有内容)
    :读取文件;
    :编译 dia;
endwhile (空)
:关闭文件;
end
@enduml

PlantUML version 1.2017.19(Sun Nov 12 19:46:22 CST 2017)
(GPL source distribution)
Java Runtime: Java(TM) SE Runtime Environment
JVM: Java HotSpot(TM) 64-Bit Server VM
Java Version: 1.8.0_112-b16
Operating System: Mac OS X
OS Version: 10.12.6
Default Encoding: UTF-8
Language: zh
Country: CN
--></g></svg>