<?xml version="1.0" encoding="UTF-8" standalone="no"?><svg xmlns="http://www.w3.org/2000/svg" xmlns:xlink="http://www.w3.org/1999/xlink" contentScriptType="application/ecmascript" contentStyleType="text/css" height="278px" preserveAspectRatio="none" style="width:153px;height:278px;" version="1.1" viewBox="0 0 153 278" width="153px" zoomAndPan="magnify"><defs><filter height="300%" id="fznah9dckv774" width="300%" x="-1" y="-1"><feGaussianBlur result="blurOut" stdDeviation="2.0"/><feColorMatrix in="blurOut" result="blurOut2" type="matrix" values="0 0 0 0 0 0 0 0 0 0 0 0 0 0 0 0 0 0 .4 0"/><feOffset dx="4.0" dy="4.0" in="blurOut2" result="blurOut3"/><feBlend in="SourceGraphic" in2="blurOut3" mode="normal"/></filter></defs><g><text fill="#000000" font-family="sans-serif" font-size="18" lengthAdjust="spacingAndGlyphs" textLength="90" x="30.5" y="27.4023">act_new_9</text><ellipse cx="76" cy="41.1992" fill="#000000" filter="url(#fznah9dckv774)" rx="10" ry="10" style="stroke: none; stroke-width: 1.0;"/><rect fill="#FEFECE" filter="url(#fznah9dckv774)" height="34.1328" rx="12.5" ry="12.5" style="stroke: #A80036; stroke-width: 1.5;" width="68" x="42" y="71.1992"/><text fill="#000000" font-family="sans-serif" font-size="12" lengthAdjust="spacingAndGlyphs" textLength="48" x="52" y="92.8008">进程开始</text><rect fill="#FF0000" filter="url(#fznah9dckv774)" height="48.2656" rx="12.5" ry="12.5" style="stroke: #A80036; stroke-width: 1.5;" width="132" x="10" y="125.332"/><text fill="#000000" font-family="sans-serif" font-size="12" lengthAdjust="spacingAndGlyphs" textLength="72" x="20" y="146.9336">试着读取文件</text><text fill="#000000" font-family="sans-serif" font-size="12" lengthAdjust="spacingAndGlyphs" textLength="112" x="20" y="161.0664">文件必须有可写权限!</text><rect fill="#AAAAAA" filter="url(#fznah9dckv774)" height="34.1328" rx="12.5" ry="12.5" style="stroke: #A80036; stroke-width: 1.5;" width="68" x="42" y="193.5977"/><text fill="#000000" font-family="sans-serif" font-size="12" lengthAdjust="spacingAndGlyphs" textLength="48" x="52" y="215.1992">结束进程</text><ellipse cx="76" cy="257.7305" fill="none" filter="url(#fznah9dckv774)" rx="10" ry="10" style="stroke: #000000; stroke-width: 1.0;"/><ellipse cx="76.5" cy="258.2305" fill="#000000" filter="url(#fznah9dckv774)" rx="6" ry="6" style="stroke: none; stroke-width: 1.0;"/><line style="stroke: #A80036; stroke-width: 1.5;" x1="76" x2="76" y1="51.1992" y2="71.1992"/><polygon fill="#A80036" points="72,61.1992,76,71.1992,80,61.1992,76,65.1992" style="stroke: #A80036; stroke-width: 1.0;"/><line style="stroke: #A80036; stroke-width: 1.5;" x1="76" x2="76" y1="105.332" y2="125.332"/><polygon fill="#A80036" points="72,115.332,76,125.332,80,115.332,76,119.332" style="stroke: #A80036; stroke-width: 1.0;"/><line style="stroke: #A80036; stroke-width: 1.5;" x1="76" x2="76" y1="173.5977" y2="193.5977"/><polygon fill="#A80036" points="72,183.5977,76,193.5977,80,183.5977,76,187.5977" style="stroke: #A80036; stroke-width: 1.0;"/><line style="stroke: #A80036; stroke-width: 1.5;" x1="76" x2="76" y1="227.7305" y2="247.7305"/><polygon fill="#A80036" points="72,237.7305,76,247.7305,80,237.7305,76,241.7305" style="stroke: #A80036; stroke-width: 1.0;"/><!--
@startuml
title act_new_9
start
:进程开始;
#red:试着读取文件
文件必须有可写权限!;
#AAAAAA:结束进程;
stop
@enduml

PlantUML version 1.2017.19(Sun Nov 12 19:46:22 CST 2017)
(GPL source distribution)
Java Runtime: Java(TM) SE Runtime Environment
JVM: Java HotSpot(TM) 64-Bit Server VM
Java Version: 1.8.0_112-b16
Operating System: Mac OS X
OS Version: 10.12.6
Default Encoding: UTF-8
Language: zh
Country: CN
--></g></svg>