<?xml version="1.0" encoding="UTF-8" standalone="no"?><svg xmlns="http://www.w3.org/2000/svg" xmlns:xlink="http://www.w3.org/1999/xlink" contentScriptType="application/ecmascript" contentStyleType="text/css" height="1135px" preserveAspectRatio="none" style="width:458px;height:1135px;" version="1.1" viewBox="0 0 458 1135" width="458px" zoomAndPan="magnify"><defs><filter height="300%" id="fd21rqrww6cbd" width="300%" x="-1" y="-1"><feGaussianBlur result="blurOut" stdDeviation="2.0"/><feColorMatrix in="blurOut" result="blurOut2" type="matrix" values="0 0 0 0 0 0 0 0 0 0 0 0 0 0 0 0 0 0 .4 0"/><feOffset dx="4.0" dy="4.0" in="blurOut2" result="blurOut3"/><feBlend in="SourceGraphic" in2="blurOut3" mode="normal"/></filter></defs><g><text fill="#000000" font-family="sans-serif" font-size="18" lengthAdjust="spacingAndGlyphs" textLength="46" x="209.5" y="17.4023">act_6</text><ellipse cx="177.5" cy="39.1992" fill="#000000" filter="url(#fd21rqrww6cbd)" rx="10" ry="10" style="stroke: none; stroke-width: 1.0;"/><rect fill="#FEFECE" filter="url(#fd21rqrww6cbd)" height="34.1328" rx="12.5" ry="12.5" style="stroke: #A80036; stroke-width: 1.5;" width="183" x="86" y="90.1992"/><text fill="#000000" font-family="sans-serif" font-size="12" lengthAdjust="spacingAndGlyphs" textLength="163" x="96" y="111.8008">ClickServlet.handleRequest()</text><rect fill="#FEFECE" filter="url(#fd21rqrww6cbd)" height="34.1328" rx="12.5" ry="12.5" style="stroke: #A80036; stroke-width: 1.5;" width="75" x="140" y="165.1992"/><text fill="#000000" font-family="sans-serif" font-size="12" lengthAdjust="spacingAndGlyphs" textLength="55" x="150" y="186.8008">new Page</text><polygon fill="#FEFECE" filter="url(#fd21rqrww6cbd)" points="177.5,245.1992,189.5,257.1992,177.5,269.1992,165.5,257.1992,177.5,245.1992" style="stroke: #A80036; stroke-width: 1.5;"/><rect fill="#FEFECE" filter="url(#fd21rqrww6cbd)" height="34.1328" rx="12.5" ry="12.5" style="stroke: #A80036; stroke-width: 1.5;" width="91" x="236" y="240.1992"/><text fill="#000000" font-family="sans-serif" font-size="12" lengthAdjust="spacingAndGlyphs" textLength="71" x="246" y="261.8008">Page.onInit()</text><polygon fill="#FEFECE" filter="url(#fd21rqrww6cbd)" points="286.5,320.1992,298.5,332.1992,286.5,344.1992,274.5,332.1992,286.5,320.1992" style="stroke: #A80036; stroke-width: 1.5;"/><rect fill="#FEFECE" filter="url(#fd21rqrww6cbd)" height="34.1328" rx="12.5" ry="12.5" style="stroke: #A80036; stroke-width: 1.5;" width="113" x="334" y="315.1992"/><text fill="#000000" font-family="sans-serif" font-size="12" lengthAdjust="spacingAndGlyphs" textLength="93" x="344" y="336.8008">Process controls</text><polygon fill="#FEFECE" filter="url(#fd21rqrww6cbd)" points="390.5,390.1992,402.5,402.1992,390.5,414.1992,378.5,402.1992,390.5,390.1992" style="stroke: #A80036; stroke-width: 1.5;"/><rect fill="#000000" filter="url(#fd21rqrww6cbd)" height="8" style="stroke: none; stroke-width: 1.0;" width="80" x="297.5" y="468.1992"/><rect fill="#000000" filter="url(#fd21rqrww6cbd)" height="8" style="stroke: none; stroke-width: 1.0;" width="80" x="246.5" y="758.1992"/><polygon fill="#FEFECE" filter="url(#fd21rqrww6cbd)" points="337.5,530.1992,349.5,542.1992,337.5,554.1992,325.5,542.1992,337.5,530.1992" style="stroke: #A80036; stroke-width: 1.5;"/><rect fill="#FEFECE" filter="url(#fd21rqrww6cbd)" height="34.1328" rx="12.5" ry="12.5" style="stroke: #A80036; stroke-width: 1.5;" width="98" x="180.5" y="608.1992"/><text fill="#000000" font-family="sans-serif" font-size="12" lengthAdjust="spacingAndGlyphs" textLength="78" x="190.5" y="629.8008">Page.onPost()</text><rect fill="#FEFECE" filter="url(#fd21rqrww6cbd)" height="34.1328" rx="12.5" ry="12.5" style="stroke: #A80036; stroke-width: 1.5;" width="116" x="228.5" y="683.1992"/><text fill="#000000" font-family="sans-serif" font-size="12" lengthAdjust="spacingAndGlyphs" textLength="96" x="238.5" y="704.8008">Page.onRender()</text><rect fill="#FEFECE" filter="url(#fd21rqrww6cbd)" height="34.1328" rx="12.5" ry="12.5" style="stroke: #A80036; stroke-width: 1.5;" width="94" x="298.5" y="608.1992"/><text fill="#000000" font-family="sans-serif" font-size="12" lengthAdjust="spacingAndGlyphs" textLength="74" x="308.5" y="629.8008">Page.onGet()</text><polygon fill="#FEFECE" filter="url(#fd21rqrww6cbd)" points="286.5,807.1992,298.5,819.1992,286.5,831.1992,274.5,819.1992,286.5,807.1992" style="stroke: #A80036; stroke-width: 1.5;"/><rect fill="#FEFECE" filter="url(#fd21rqrww6cbd)" height="34.1328" rx="12.5" ry="12.5" style="stroke: #A80036; stroke-width: 1.5;" width="113" x="306" y="851.1992"/><text fill="#000000" font-family="sans-serif" font-size="12" lengthAdjust="spacingAndGlyphs" textLength="93" x="316" y="872.8008">redirect request</text><rect fill="#000000" filter="url(#fd21rqrww6cbd)" height="8" style="stroke: none; stroke-width: 1.0;" width="80" x="255.5" y="980.1992"/><polygon fill="#FEFECE" filter="url(#fd21rqrww6cbd)" points="172.5,910.1992,184.5,922.1992,172.5,934.1992,160.5,922.1992,172.5,910.1992" style="stroke: #A80036; stroke-width: 1.5;"/><rect fill="#FEFECE" filter="url(#fd21rqrww6cbd)" height="34.1328" rx="12.5" ry="12.5" style="stroke: #A80036; stroke-width: 1.5;" width="115" x="6" y="905.1992"/><text fill="#000000" font-family="sans-serif" font-size="12" lengthAdjust="spacingAndGlyphs" textLength="95" x="16" y="926.8008">Forward request</text><rect fill="#FEFECE" filter="url(#fd21rqrww6cbd)" height="34.1328" rx="12.5" ry="12.5" style="stroke: #A80036; stroke-width: 1.5;" width="150" x="220.5" y="905.1992"/><text fill="#000000" font-family="sans-serif" font-size="12" lengthAdjust="spacingAndGlyphs" textLength="130" x="230.5" y="926.8008">Render page template</text><rect fill="#FEFECE" filter="url(#fd21rqrww6cbd)" height="34.1328" rx="12.5" ry="12.5" style="stroke: #A80036; stroke-width: 1.5;" width="118" x="236.5" y="1029.1992"/><text fill="#000000" font-family="sans-serif" font-size="12" lengthAdjust="spacingAndGlyphs" textLength="98" x="246.5" y="1050.8008">Page.onDestroy()</text><ellipse cx="295.5" cy="1114.1992" fill="none" filter="url(#fd21rqrww6cbd)" rx="10" ry="10" style="stroke: #000000; stroke-width: 1.0;"/><ellipse cx="296" cy="1114.6992" fill="#000000" rx="6" ry="6" style="stroke: none; stroke-width: 1.0;"/><!--link start to ClickServlet.handleRequest()--><path d="M177.5,49.2328 C177.5,58.6074 177.5,72.9277 177.5,84.989 " fill="none" id="start-ClickServlet.handleRequest()" style="stroke: #A80036; stroke-width: 1.0;"/><polygon fill="#A80036" points="177.5,89.9987,181.5,80.9987,177.5,84.9987,173.5,80.9987,177.5,89.9987" style="stroke: #A80036; stroke-width: 1.0;"/><!--link ClickServlet.handleRequest() to new Page--><path d="M177.5,124.2179 C177.5,134.7869 177.5,148.4871 177.5,159.9163 " fill="none" id="ClickServlet.handleRequest()-new Page" style="stroke: #A80036; stroke-width: 1.0;"/><polygon fill="#A80036" points="177.5,164.9883,181.5,155.9883,177.5,159.9883,173.5,155.9883,177.5,164.9883" style="stroke: #A80036; stroke-width: 1.0;"/><!--link new Page to #7--><path d="M177.5,199.2179 C177.5,211.3611 177.5,227.6375 177.5,239.8539 " fill="none" id="new Page-#7" style="stroke: #A80036; stroke-width: 1.0;"/><polygon fill="#A80036" points="177.5,245.1518,181.5,236.1518,177.5,240.1518,173.5,236.1518,177.5,245.1518" style="stroke: #A80036; stroke-width: 1.0;"/><text fill="#000000" font-family="sans-serif" font-size="11" lengthAdjust="spacingAndGlyphs" textLength="118" x="39.2188" y="237.7469">Page.onSecurityCheck</text><!--link #7 to Page.onInit()--><path d="M189.8386,257.1992 C200.0869,257.1992 215.3954,257.1992 230.5809,257.1992 " fill="none" id="#7-Page.onInit()" style="stroke: #A80036; stroke-width: 1.0;"/><polygon fill="#A80036" points="235.7186,257.1992,226.7186,253.1992,230.7186,257.1992,226.7186,261.1992,235.7186,257.1992" style="stroke: #A80036; stroke-width: 1.0;"/><text fill="#000000" font-family="sans-serif" font-size="11" lengthAdjust="spacingAndGlyphs" textLength="22" x="201.75" y="251.834">true</text><!--link Page.onInit() to #12--><path d="M282.6346,274.2179 C283.4541,286.511 284.5561,303.04 285.3737,315.3045 " fill="none" id="Page.onInit()-#12" style="stroke: #A80036; stroke-width: 1.0;"/><polygon fill="#A80036" points="285.7273,320.6089,289.1198,311.3628,285.3947,315.62,281.1375,311.8949,285.7273,320.6089" style="stroke: #A80036; stroke-width: 1.0;"/><text fill="#000000" font-family="sans-serif" font-size="11" lengthAdjust="spacingAndGlyphs" textLength="58" x="211.7245" y="310.0456">isForward?</text><!--link #12 to Process controls--><path d="M298.8386,332.1992 C306.5841,332.1992 317.22,332.1992 328.5087,332.1992 " fill="none" id="#12-Process controls" style="stroke: #A80036; stroke-width: 1.0;"/><polygon fill="#A80036" points="333.7333,332.1992,324.7333,328.1992,328.7333,332.1992,324.7333,336.1992,333.7333,332.1992" style="stroke: #A80036; stroke-width: 1.0;"/><text fill="#000000" font-family="sans-serif" font-size="11" lengthAdjust="spacingAndGlyphs" textLength="14" x="309.25" y="326.834">no</text><!--link Process controls to #17--><path d="M390.5,349.5026 C390.5,360.358 390.5,374.2955 390.5,385.11 " fill="none" id="Process controls-#17" style="stroke: #A80036; stroke-width: 1.0;"/><polygon fill="#A80036" points="390.5,390.1409,394.5,381.1409,390.5,385.1409,386.5,381.1409,390.5,390.1409" style="stroke: #A80036; stroke-width: 1.0;"/><text fill="#000000" font-family="sans-serif" font-size="11" lengthAdjust="spacingAndGlyphs" textLength="115" x="255.7344" y="382.7323">continue processing?</text><!--link #17 to RENDERING--><path d="M385.2244,409.167 C375.4385,422.0918 354.5086,449.735 343.9192,463.721 " fill="none" id="#17-RENDERING" style="stroke: #A80036; stroke-width: 1.0;"/><polygon fill="#A80036" points="340.7555,467.8995,349.3774,463.1389,343.7738,463.9133,342.9994,458.3097,340.7555,467.8995" style="stroke: #A80036; stroke-width: 1.0;"/><text fill="#000000" font-family="sans-serif" font-size="11" lengthAdjust="spacingAndGlyphs" textLength="18" x="367.5" y="445.834">yes</text><!--link #17 to REDIRECT_CHECK--><path d="M396.2482,409.0457 C405.7029,421.029 423.5,446.9404 423.5,472.1992 C423.5,472.1992 423.5,472.1992 423.5,700.1992 C423.5,724.997 348.0579,747.1329 309.1408,756.9021 " fill="none" id="#17-REDIRECT_CHECK" style="stroke: #A80036; stroke-width: 1.0;"/><polygon fill="#A80036" points="304.1299,758.1423,313.8273,759.8628,308.9834,756.941,311.9052,752.0971,304.1299,758.1423" style="stroke: #A80036; stroke-width: 1.0;"/><text fill="#000000" font-family="sans-serif" font-size="11" lengthAdjust="spacingAndGlyphs" textLength="14" x="424.5" y="585.834">no</text><!--link #12 to RENDERING--><path d="M289.8463,341.385 C299.0761,366.7217 324.824,437.4023 334.1081,462.888 " fill="none" id="#12-RENDERING" style="stroke: #A80036; stroke-width: 1.0;"/><polygon fill="#A80036" points="335.9177,467.8558,336.5955,458.0303,334.2063,463.1578,329.0788,460.7686,335.9177,467.8558" style="stroke: #A80036; stroke-width: 1.0;"/><text fill="#000000" font-family="sans-serif" font-size="11" lengthAdjust="spacingAndGlyphs" textLength="18" x="317.5" y="406.834">yes</text><!--link RENDERING to #25--><path d="M337.5,476.3684 C337.5,485.6766 337.5,508.6019 337.5,524.7711 " fill="none" id="RENDERING-#25" style="stroke: #A80036; stroke-width: 1.0;"/><polygon fill="#A80036" points="337.5,529.9661,341.5,520.9661,337.5,524.9661,333.5,520.9661,337.5,529.9661" style="stroke: #A80036; stroke-width: 1.0;"/><text fill="#000000" font-family="sans-serif" font-size="11" lengthAdjust="spacingAndGlyphs" textLength="40" x="287.75" y="519.945">is Post?</text><!--link #25 to Page.onPost()--><path d="M330.4138,547.6451 C315.5971,559.032 280.6788,585.8673 256.0855,604.7677 " fill="none" id="#25-Page.onPost()" style="stroke: #A80036; stroke-width: 1.0;"/><polygon fill="#A80036" points="251.9268,607.9638,261.5003,605.6512,255.8913,604.9171,256.6255,599.308,251.9268,607.9638" style="stroke: #A80036; stroke-width: 1.0;"/><text fill="#000000" font-family="sans-serif" font-size="11" lengthAdjust="spacingAndGlyphs" textLength="18" x="294.5" y="585.834">yes</text><!--link Page.onPost() to render--><path d="M242.4342,642.2179 C250.6838,653.0726 261.4434,667.23 270.2654,678.8379 " fill="none" id="Page.onPost()-render" style="stroke: #A80036; stroke-width: 1.0;"/><polygon fill="#A80036" points="273.4197,682.9883,271.1583,673.4026,270.3941,679.0076,264.7891,678.2435,273.4197,682.9883" style="stroke: #A80036; stroke-width: 1.0;"/><!--link render to REDIRECT_CHECK--><path d="M286.5,717.4697 C286.5,728.8638 286.5,743.359 286.5,752.7079 " fill="none" id="render-REDIRECT_CHECK" style="stroke: #A80036; stroke-width: 1.0;"/><polygon fill="#A80036" points="286.5,757.79,290.5,748.79,286.5,752.79,282.5,748.79,286.5,757.79" style="stroke: #A80036; stroke-width: 1.0;"/><!--link #25 to Page.onGet()--><path d="M338.5789,553.3929 C339.7974,566.035 341.8111,586.9272 343.3531,602.9256 " fill="none" id="#25-Page.onGet()" style="stroke: #A80036; stroke-width: 1.0;"/><polygon fill="#A80036" points="343.8562,608.1446,346.974,598.8023,343.3763,603.1677,339.0109,599.5701,343.8562,608.1446" style="stroke: #A80036; stroke-width: 1.0;"/><text fill="#000000" font-family="sans-serif" font-size="11" lengthAdjust="spacingAndGlyphs" textLength="14" x="343.5" y="585.834">no</text><!--link Page.onGet() to render--><path d="M332.112,642.2179 C323.5729,653.0726 312.4358,667.23 303.3042,678.8379 " fill="none" id="Page.onGet()-render" style="stroke: #A80036; stroke-width: 1.0;"/><polygon fill="#A80036" points="300.0393,682.9883,308.7477,678.3879,303.1308,679.0586,302.4601,673.4416,300.0393,682.9883" style="stroke: #A80036; stroke-width: 1.0;"/><!--link #7 to REDIRECT_CHECK--><path d="M172.6228,264.7324 C164.6006,277.8699 149.5,306.0697 149.5,332.1992 C149.5,332.1992 149.5,332.1992 149.5,700.1992 C149.5,724.997 224.9421,747.1329 263.8592,756.9021 " fill="none" id="#7-REDIRECT_CHECK" style="stroke: #A80036; stroke-width: 1.0;"/><polygon fill="#A80036" points="268.8701,758.1423,261.0948,752.0971,264.0166,756.941,259.1727,759.8628,268.8701,758.1423" style="stroke: #A80036; stroke-width: 1.0;"/><text fill="#000000" font-family="sans-serif" font-size="11" lengthAdjust="spacingAndGlyphs" textLength="25" x="150.5" y="507.834">false</text><!--link REDIRECT_CHECK to #37--><path d="M286.5,766.2985 C286.5,773.6246 286.5,789.3595 286.5,801.7743 " fill="none" id="REDIRECT_CHECK-#37" style="stroke: #A80036; stroke-width: 1.0;"/><polygon fill="#A80036" points="286.5,806.8574,290.5,797.8574,286.5,801.8574,282.5,797.8574,286.5,806.8574" style="stroke: #A80036; stroke-width: 1.0;"/><text fill="#000000" font-family="sans-serif" font-size="11" lengthAdjust="spacingAndGlyphs" textLength="65" x="205.6563" y="796.7834">Do redirect?</text><!--link #37 to redirect request--><path d="M294.065,824.0766 C302.8436,829.7365 317.8761,839.4285 331.6199,848.2897 " fill="none" id="#37-redirect request" style="stroke: #A80036; stroke-width: 1.0;"/><polygon fill="#A80036" points="335.8355,851.0076,330.439,842.7689,331.6332,848.2982,326.1039,849.4925,335.8355,851.0076" style="stroke: #A80036; stroke-width: 1.0;"/><text fill="#000000" font-family="sans-serif" font-size="11" lengthAdjust="spacingAndGlyphs" textLength="18" x="316.0551" y="835.2445">yes</text><!--link redirect request to BEFORE_DESTROY--><path d="M373.7705,885.3364 C382.146,900.4259 390.5355,922.5311 380.5,939.1992 C367.3994,960.958 339.858,972.7468 319.6617,978.7315 " fill="none" id="redirect request-BEFORE_DESTROY" style="stroke: #A80036; stroke-width: 1.0;"/><polygon fill="#A80036" points="314.6986,980.1306,324.4463,981.5385,319.511,978.7739,322.2756,973.8386,314.6986,980.1306" style="stroke: #A80036; stroke-width: 1.0;"/><!--link #37 to #44--><path d="M280.0442,825.032 C261.1547,842.0989 205.8755,892.0442 182.8024,912.8909 " fill="none" id="#37-#44" style="stroke: #A80036; stroke-width: 1.0;"/><polygon fill="#A80036" points="178.885,916.4303,188.2446,913.3647,182.595,913.0783,182.8814,907.4287,178.885,916.4303" style="stroke: #A80036; stroke-width: 1.0;"/><text fill="#000000" font-family="sans-serif" font-size="11" lengthAdjust="spacingAndGlyphs" textLength="67" x="144.8799" y="900.7067">Do Forward?</text><!--link Forward request to #44--><path d="M126.4135,922.1992 C139.4568,922.1992 151.8412,922.1992 160.4808,922.1992 " fill="none" id="Forward request-#44" style="stroke: #A80036; stroke-width: 1.0;"/><polygon fill="#A80036" points="121.1917,922.1992,130.1917,926.1992,126.1917,922.1992,130.1917,918.1992,121.1917,922.1992" style="stroke: #A80036; stroke-width: 1.0;"/><text fill="#000000" font-family="sans-serif" font-size="11" lengthAdjust="spacingAndGlyphs" textLength="18" x="131.75" y="916.834">yes</text><!--link Forward request to BEFORE_DESTROY--><path d="M121.1464,937.6047 C171.3357,951.0174 241.2316,969.6964 275.2655,978.7917 " fill="none" id="Forward request-BEFORE_DESTROY" style="stroke: #A80036; stroke-width: 1.0;"/><polygon fill="#A80036" points="280.4113,980.1669,272.7491,973.979,275.5808,978.8761,270.6837,981.7078,280.4113,980.1669" style="stroke: #A80036; stroke-width: 1.0;"/><!--link #44 to Render page template--><path d="M184.7434,922.1992 C192.5061,922.1992 203.2902,922.1992 215.1049,922.1992 " fill="none" id="#44-Render page template" style="stroke: #A80036; stroke-width: 1.0;"/><polygon fill="#A80036" points="220.2256,922.1992,211.2256,918.1992,215.2256,922.1992,211.2256,926.1992,220.2256,922.1992" style="stroke: #A80036; stroke-width: 1.0;"/><text fill="#000000" font-family="sans-serif" font-size="11" lengthAdjust="spacingAndGlyphs" textLength="14" x="195.5" y="916.834">no</text><!--link Render page template to BEFORE_DESTROY--><path d="M295.5,939.4697 C295.5,950.8638 295.5,965.359 295.5,974.7079 " fill="none" id="Render page template-BEFORE_DESTROY" style="stroke: #A80036; stroke-width: 1.0;"/><polygon fill="#A80036" points="295.5,979.79,299.5,970.79,295.5,974.79,291.5,970.79,295.5,979.79" style="stroke: #A80036; stroke-width: 1.0;"/><!--link BEFORE_DESTROY to Page.onDestroy()--><path d="M295.5,988.2672 C295.5,995.4497 295.5,1010.8603 295.5,1023.9824 " fill="none" id="BEFORE_DESTROY-Page.onDestroy()" style="stroke: #A80036; stroke-width: 1.0;"/><polygon fill="#A80036" points="295.5,1029.0625,299.5,1020.0625,295.5,1024.0625,291.5,1020.0625,295.5,1029.0625" style="stroke: #A80036; stroke-width: 1.0;"/><!--link Page.onDestroy() to end--><path d="M295.5,1063.3585 C295.5,1074.2139 295.5,1088.1335 295.5,1098.6625 " fill="none" id="Page.onDestroy()-end" style="stroke: #A80036; stroke-width: 1.0;"/><polygon fill="#A80036" points="295.5,1103.8252,299.5,1094.8252,295.5,1098.8252,291.5,1094.8252,295.5,1103.8252" style="stroke: #A80036; stroke-width: 1.0;"/><!--
@startuml

title act_6

(*) - -> "ClickServlet.handleRequest()"
- -> "new Page"

if "Page.onSecurityCheck" then
  ->[true] "Page.onInit()"
  
  if "isForward?" then
   ->[no] "Process controls"
   
   if "continue processing?" then
     - ->[yes] ===RENDERING===
   else
     - ->[no] ===REDIRECT_CHECK===
   endif
   
  else
   - ->[yes] ===RENDERING===
  endif
  
  if "is Post?" then
    - ->[yes] "Page.onPost()"
    - -> "Page.onRender()" as render
    - -> ===REDIRECT_CHECK===
  else
    - ->[no] "Page.onGet()"
    - -> render
  endif
  
else
  - ->[false] ===REDIRECT_CHECK===
endif

if "Do redirect?" then
 ->[yes] "redirect request"
 - -> ==BEFORE_DESTROY===
else
 if "Do Forward?" then
  -left->[yes] "Forward request"
  - -> ==BEFORE_DESTROY===
 else
  -right->[no] "Render page template"
  - -> ==BEFORE_DESTROY===
 endif
endif

- -> "Page.onDestroy()"
- ->(*)

@enduml

PlantUML version 1.2017.19(Sun Nov 12 19:46:22 CST 2017)
(GPL source distribution)
Java Runtime: Java(TM) SE Runtime Environment
JVM: Java HotSpot(TM) 64-Bit Server VM
Java Version: 1.8.0_112-b16
Operating System: Mac OS X
OS Version: 10.12.6
Default Encoding: UTF-8
Language: zh
Country: CN
--></g></svg>