<?xml version="1.0" encoding="UTF-8" standalone="no"?><svg xmlns="http://www.w3.org/2000/svg" xmlns:xlink="http://www.w3.org/1999/xlink" contentScriptType="application/ecmascript" contentStyleType="text/css" height="194px" preserveAspectRatio="none" style="width:93px;height:194px;" version="1.1" viewBox="0 0 93 194" width="93px" zoomAndPan="magnify"><defs><filter height="300%" id="f1w1pnx0vboj93" width="300%" x="-1" y="-1"><feGaussianBlur result="blurOut" stdDeviation="2.0"/><feColorMatrix in="blurOut" result="blurOut2" type="matrix" values="0 0 0 0 0 0 0 0 0 0 0 0 0 0 0 0 0 0 .4 0"/><feOffset dx="4.0" dy="4.0" in="blurOut2" result="blurOut3"/><feBlend in="SourceGraphic" in2="blurOut3" mode="normal"/></filter></defs><g><text fill="#000000" font-family="sans-serif" font-size="18" lengthAdjust="spacingAndGlyphs" textLength="46" x="27" y="17.4023">act_1</text><ellipse cx="44" cy="39.1992" fill="#000000" filter="url(#f1w1pnx0vboj93)" rx="10" ry="10" style="stroke: none; stroke-width: 1.0;"/><rect fill="#FEFECE" filter="url(#f1w1pnx0vboj93)" height="34.1328" rx="12.5" ry="12.5" style="stroke: #A80036; stroke-width: 1.5;" width="76" x="6" y="89.1992"/><text fill="#000000" font-family="sans-serif" font-size="12" lengthAdjust="spacingAndGlyphs" textLength="56" x="16" y="110.8008">文档  内容</text><ellipse cx="44" cy="173.1992" fill="none" filter="url(#f1w1pnx0vboj93)" rx="10" ry="10" style="stroke: #000000; stroke-width: 1.0;"/><ellipse cx="44.5" cy="173.6992" fill="#000000" rx="6" ry="6" style="stroke: none; stroke-width: 1.0;"/><!--link start to 文档  内容--><path d="M44,49.3751 C44,58.5178 44,72.2618 44,83.9428 " fill="none" id="start-文档  内容" style="stroke: #A80036; stroke-width: 1.0;"/><polygon fill="#A80036" points="44,89.1406,48,80.1406,44,84.1406,40,80.1406,44,89.1406" style="stroke: #A80036; stroke-width: 1.0;"/><!--link 文档  内容 to end--><path d="M44,123.4534 C44,134.151 44,147.7649 44,158.0456 " fill="none" id="文档  内容-end" style="stroke: #A80036; stroke-width: 1.0;"/><polygon fill="#A80036" points="44,163.0847,48,154.0847,44,158.0847,40,154.0847,44,163.0847" style="stroke: #A80036; stroke-width: 1.0;"/><!--
@startuml

title act_1

(*) - -> "文档  内容" 
- -> (*)
@enduml

PlantUML version 1.2017.19(Sun Nov 12 19:46:22 CST 2017)
(GPL source distribution)
Java Runtime: Java(TM) SE Runtime Environment
JVM: Java HotSpot(TM) 64-Bit Server VM
Java Version: 1.8.0_112-b16
Operating System: Mac OS X
OS Version: 10.12.6
Default Encoding: UTF-8
Language: zh
Country: CN
--></g></svg>