<?xml version="1.0" encoding="UTF-8" standalone="no"?><svg xmlns="http://www.w3.org/2000/svg" xmlns:xlink="http://www.w3.org/1999/xlink" contentScriptType="application/ecmascript" contentStyleType="text/css" height="364px" preserveAspectRatio="none" style="width:273px;height:364px;" version="1.1" viewBox="0 0 273 364" width="273px" zoomAndPan="magnify"><defs><filter height="300%" id="f11zc4rcf3ha3o" width="300%" x="-1" y="-1"><feGaussianBlur result="blurOut" stdDeviation="2.0"/><feColorMatrix in="blurOut" result="blurOut2" type="matrix" values="0 0 0 0 0 0 0 0 0 0 0 0 0 0 0 0 0 0 .4 0"/><feOffset dx="4.0" dy="4.0" in="blurOut2" result="blurOut3"/><feBlend in="SourceGraphic" in2="blurOut3" mode="normal"/></filter></defs><g><text fill="#000000" font-family="sans-serif" font-size="18" lengthAdjust="spacingAndGlyphs" textLength="46" x="117" y="17.4023">act_5</text><ellipse cx="134" cy="39.1992" fill="#000000" filter="url(#f11zc4rcf3ha3o)" rx="10" ry="10" style="stroke: none; stroke-width: 1.0;"/><rect fill="#FEFECE" filter="url(#f11zc4rcf3ha3o)" height="34.1328" rx="12.5" ry="12.5" style="stroke: #A80036; stroke-width: 1.5;" width="44" x="112" y="89.1992"/><text fill="#000000" font-family="sans-serif" font-size="12" lengthAdjust="spacingAndGlyphs" textLength="24" x="122" y="110.8008">内容</text><rect fill="#000000" filter="url(#f11zc4rcf3ha3o)" height="8" style="stroke: none; stroke-width: 1.0;" width="80" x="94" y="163.1992"/><rect fill="#FEFECE" filter="url(#f11zc4rcf3ha3o)" height="34.1328" rx="12.5" ry="12.5" style="stroke: #A80036; stroke-width: 1.5;" width="118" x="6" y="211.1992"/><text fill="#000000" font-family="sans-serif" font-size="12" lengthAdjust="spacingAndGlyphs" textLength="98" x="16" y="232.8008">Parallel Activity 1</text><rect fill="#000000" filter="url(#f11zc4rcf3ha3o)" height="8" style="stroke: none; stroke-width: 1.0;" width="80" x="94" y="285.1992"/><rect fill="#FEFECE" filter="url(#f11zc4rcf3ha3o)" height="34.1328" rx="12.5" ry="12.5" style="stroke: #A80036; stroke-width: 1.5;" width="118" x="144" y="211.1992"/><text fill="#000000" font-family="sans-serif" font-size="12" lengthAdjust="spacingAndGlyphs" textLength="98" x="154" y="232.8008">Parallel Activity 2</text><ellipse cx="134" cy="343.1992" fill="none" filter="url(#f11zc4rcf3ha3o)" rx="10" ry="10" style="stroke: #000000; stroke-width: 1.0;"/><ellipse cx="134.5" cy="343.6992" fill="#000000" rx="6" ry="6" style="stroke: none; stroke-width: 1.0;"/><!--link start to 内容--><path d="M134,49.3751 C134,58.5178 134,72.2618 134,83.9428 " fill="none" id="start-内容" style="stroke: #A80036; stroke-width: 1.0;"/><polygon fill="#A80036" points="134,89.1406,138,80.1406,134,84.1406,130,80.1406,134,89.1406" style="stroke: #A80036; stroke-width: 1.0;"/><!--link 内容 to B1--><path d="M134,123.5162 C134,134.6115 134,148.589 134,157.7025 " fill="none" id="内容-B1" style="stroke: #A80036; stroke-width: 1.0;"/><polygon fill="#A80036" points="134,162.9098,138,153.9098,134,157.9098,130,153.9098,134,162.9098" style="stroke: #A80036; stroke-width: 1.0;"/><!--link B1 to Parallel Activity 1--><path d="M129.4727,171.2016 C121.2512,178.4699 103.3423,194.3024 88.4812,207.4405 " fill="none" id="B1-Parallel Activity 1" style="stroke: #A80036; stroke-width: 1.0;"/><polygon fill="#A80036" points="84.381,211.0653,93.7732,208.1012,88.1271,207.7537,88.4746,202.1075,84.381,211.0653" style="stroke: #A80036; stroke-width: 1.0;"/><!--link Parallel Activity 1 to B2--><path d="M84.5881,245.5162 C98.1146,257.4745 115.4282,272.7807 125.5592,281.7371 " fill="none" id="Parallel Activity 1-B2" style="stroke: #A80036; stroke-width: 1.0;"/><polygon fill="#A80036" points="129.4293,285.1585,125.3359,276.2006,125.6833,281.8468,120.0371,282.1942,129.4293,285.1585" style="stroke: #A80036; stroke-width: 1.0;"/><!--link B1 to Parallel Activity 2--><path d="M138.5273,171.2016 C146.7488,178.4699 164.6577,194.3024 179.5188,207.4405 " fill="none" id="B1-Parallel Activity 2" style="stroke: #A80036; stroke-width: 1.0;"/><polygon fill="#A80036" points="183.619,211.0653,179.5254,202.1075,179.8729,207.7537,174.2268,208.1012,183.619,211.0653" style="stroke: #A80036; stroke-width: 1.0;"/><!--link Parallel Activity 2 to B2--><path d="M183.4119,245.5162 C169.8854,257.4745 152.5718,272.7807 142.4408,281.7371 " fill="none" id="Parallel Activity 2-B2" style="stroke: #A80036; stroke-width: 1.0;"/><polygon fill="#A80036" points="138.5707,285.1585,147.9629,282.1942,142.3167,281.8468,142.6641,276.2006,138.5707,285.1585" style="stroke: #A80036; stroke-width: 1.0;"/><!--link B2 to end--><path d="M134,293.4365 C134,300.7673 134,316.1574 134,327.8936 " fill="none" id="B2-end" style="stroke: #A80036; stroke-width: 1.0;"/><polygon fill="#A80036" points="134,332.9867,138,323.9867,134,327.9867,130,323.9867,134,332.9867" style="stroke: #A80036; stroke-width: 1.0;"/><!--
@startuml
title act_5

(*) - ->内容

- -> ===B1=== 
- -> "Parallel Activity 1"
- -> ===B2===

===B1=== - -> "Parallel Activity 2"
- -> ===B2===

- -> (*)

@enduml

PlantUML version 1.2017.19(Sun Nov 12 19:46:22 CST 2017)
(GPL source distribution)
Java Runtime: Java(TM) SE Runtime Environment
JVM: Java HotSpot(TM) 64-Bit Server VM
Java Version: 1.8.0_112-b16
Operating System: Mac OS X
OS Version: 10.12.6
Default Encoding: UTF-8
Language: zh
Country: CN
--></g></svg>