<?xml version="1.0" encoding="UTF-8" standalone="no"?><svg xmlns="http://www.w3.org/2000/svg" xmlns:xlink="http://www.w3.org/1999/xlink" contentScriptType="application/ecmascript" contentStyleType="text/css" height="262px" preserveAspectRatio="none" style="width:531px;height:262px;" version="1.1" viewBox="0 0 531 262" width="531px" zoomAndPan="magnify"><defs><filter height="300%" id="f182ijjqq7mff3" width="300%" x="-1" y="-1"><feGaussianBlur result="blurOut" stdDeviation="2.0"/><feColorMatrix in="blurOut" result="blurOut2" type="matrix" values="0 0 0 0 0 0 0 0 0 0 0 0 0 0 0 0 0 0 .4 0"/><feOffset dx="4.0" dy="4.0" in="blurOut2" result="blurOut3"/><feBlend in="SourceGraphic" in2="blurOut3" mode="normal"/></filter></defs><g><text fill="#000000" font-family="sans-serif" font-size="18" lengthAdjust="spacingAndGlyphs" textLength="90" x="219.5" y="27.4023">act_new_8</text><ellipse cx="181" cy="41.1992" fill="#000000" filter="url(#f182ijjqq7mff3)" rx="10" ry="10" style="stroke: none; stroke-width: 1.0;"/><polygon fill="#FBFB77" filter="url(#f182ijjqq7mff3)" points="20,75.6104,20,100.9209,133,100.9209,133,85.6104,123,75.6104,20,75.6104" style="stroke: #A80036; stroke-width: 1.0;"/><polygon fill="#FBFB77" points="20,75.6104,20,100.9209,133,100.9209,133,93.6104,153,88.2656,133,85.6104,133,85.6104,123,75.6104,20,75.6104" style="stroke: #A80036; stroke-width: 1.0;"/><line style="stroke: #A80036; stroke-width: 1.0;" x1="123" x2="123" y1="75.6104" y2="85.6104"/><line style="stroke: #A80036; stroke-width: 1.0;" x1="133" x2="123" y1="85.6104" y2="85.6104"/><text fill="#000000" font-family="sans-serif" font-size="13" lengthAdjust="spacingAndGlyphs" textLength="53" x="26" y="93.1787">This is a</text><text fill="#000000" font-family="sans-serif" font-size="13" lengthAdjust="spacingAndGlyphs" text-decoration="underline" textLength="35" x="83" y="93.1787">NOTE</text><line style="stroke: #000000; stroke-width: 1.0;" x1="83" x2="118" y1="95.1787" y2="95.1787"/><rect fill="#FEFECE" filter="url(#f182ijjqq7mff3)" height="34.1328" rx="12.5" ry="12.5" style="stroke: #A80036; stroke-width: 1.5;" width="56" x="153" y="71.1992"/><text fill="#000000" font-family="sans-serif" font-size="12" lengthAdjust="spacingAndGlyphs" textLength="32" x="167" y="92.8008">步骤1</text><polygon fill="#FBFB77" filter="url(#f182ijjqq7mff3)" points="229,115.332,229,211.8848,509,211.8848,509,125.332,499,115.332,229,115.332" style="stroke: #A80036; stroke-width: 1.0;"/><polygon fill="#FBFB77" points="229,115.332,229,159.6084,209,163.6084,229,167.6084,229,211.8848,509,211.8848,509,125.332,499,115.332,229,115.332" style="stroke: #A80036; stroke-width: 1.0;"/><line style="stroke: #A80036; stroke-width: 1.0;" x1="499" x2="499" y1="115.332" y2="125.332"/><line style="stroke: #A80036; stroke-width: 1.0;" x1="509" x2="499" y1="125.332" y2="125.332"/><text fill="#000000" font-family="sans-serif" font-size="13" lengthAdjust="spacingAndGlyphs" textLength="118" x="235" y="132.9004">支持 mark 编辑语法</text><text fill="#000000" font-family="sans-serif" font-size="13" lengthAdjust="spacingAndGlyphs" textLength="142" x="235" y="148.2109">This note is on several</text><text fill="#000000" font-family="sans-serif" font-size="13" font-style="italic" lengthAdjust="spacingAndGlyphs" textLength="30" x="235" y="163.5215">lines</text><text fill="#000000" font-family="sans-serif" font-size="13" lengthAdjust="spacingAndGlyphs" textLength="49" x="269" y="163.5215">and can</text><text fill="#000000" font-family="sans-serif" font-size="13" lengthAdjust="spacingAndGlyphs" textLength="47" x="235" y="178.832">contain</text><text fill="#000000" font-family="sans-serif" font-size="13" font-weight="bold" lengthAdjust="spacingAndGlyphs" textLength="39" x="286" y="178.832">HTML</text><line style="stroke: #A80036; stroke-width: 1.0;" x1="229" x2="509" y1="186.5742" y2="186.5742"/><line style="stroke: #A80036; stroke-width: 1.0;" x1="229" x2="509" y1="188.5742" y2="188.5742"/><ellipse cx="240.5" cy="199.3848" fill="#000000" rx="2.5" ry="2.5" style="stroke: #000000; stroke-width: 0.0;"/><text fill="#000000" font-family="sans-serif" font-size="13" lengthAdjust="spacingAndGlyphs" textLength="120" x="246" y="204.1426">Calling the method</text><text fill="#000000" font-family="monospace" font-size="13" lengthAdjust="spacingAndGlyphs" textLength="40" x="370" y="203.8188">foo()</text><text fill="#000000" font-family="sans-serif" font-size="13" lengthAdjust="spacingAndGlyphs" textLength="80" x="414" y="204.1426">is prohibited</text><rect fill="#FEFECE" filter="url(#f182ijjqq7mff3)" height="34.1328" rx="12.5" ry="12.5" style="stroke: #A80036; stroke-width: 1.5;" width="56" x="153" y="146.542"/><text fill="#000000" font-family="sans-serif" font-size="12" lengthAdjust="spacingAndGlyphs" textLength="32" x="167" y="168.1436">步骤2</text><ellipse cx="181" cy="241.8848" fill="none" filter="url(#f182ijjqq7mff3)" rx="10" ry="10" style="stroke: #000000; stroke-width: 1.0;"/><ellipse cx="181.5" cy="242.3848" fill="#000000" filter="url(#f182ijjqq7mff3)" rx="6" ry="6" style="stroke: none; stroke-width: 1.0;"/><line style="stroke: #A80036; stroke-width: 1.5;" x1="181" x2="181" y1="51.1992" y2="71.1992"/><polygon fill="#A80036" points="177,61.1992,181,71.1992,185,61.1992,181,65.1992" style="stroke: #A80036; stroke-width: 1.0;"/><line style="stroke: #A80036; stroke-width: 1.5;" x1="181" x2="181" y1="105.332" y2="146.542"/><polygon fill="#A80036" points="177,136.542,181,146.542,185,136.542,181,140.542" style="stroke: #A80036; stroke-width: 1.0;"/><line style="stroke: #A80036; stroke-width: 1.5;" x1="181" x2="181" y1="180.6748" y2="231.8848"/><polygon fill="#A80036" points="177,221.8848,181,231.8848,185,221.8848,181,225.8848" style="stroke: #A80036; stroke-width: 1.0;"/><!--
@startuml

title act_new_8

start
: 步骤1;
note left: This is a __NOTE__
: 步骤2;
note right
    支持 mark 编辑语法
    This note is on several
    //lines// and can
    contain <b>HTML</b>
    ====
    * Calling the method ""foo()"" is prohibited
end note
stop

@enduml

PlantUML version 1.2017.19(Sun Nov 12 19:46:22 CST 2017)
(GPL source distribution)
Java Runtime: Java(TM) SE Runtime Environment
JVM: Java HotSpot(TM) 64-Bit Server VM
Java Version: 1.8.0_112-b16
Operating System: Mac OS X
OS Version: 10.12.6
Default Encoding: UTF-8
Language: zh
Country: CN
--></g></svg>