<?xml version="1.0" encoding="UTF-8" standalone="no"?><svg xmlns="http://www.w3.org/2000/svg" xmlns:xlink="http://www.w3.org/1999/xlink" contentScriptType="application/ecmascript" contentStyleType="text/css" height="250px" preserveAspectRatio="none" style="width:373px;height:250px;" version="1.1" viewBox="0 0 373 250" width="373px" zoomAndPan="magnify"><defs><filter height="300%" id="f2h1zmngo02ft" width="300%" x="-1" y="-1"><feGaussianBlur result="blurOut" stdDeviation="2.0"/><feColorMatrix in="blurOut" result="blurOut2" type="matrix" values="0 0 0 0 0 0 0 0 0 0 0 0 0 0 0 0 0 0 .4 0"/><feOffset dx="4.0" dy="4.0" in="blurOut2" result="blurOut3"/><feBlend in="SourceGraphic" in2="blurOut3" mode="normal"/></filter></defs><g><text fill="#000000" font-family="sans-serif" font-size="18" lengthAdjust="spacingAndGlyphs" textLength="90" x="140.5" y="27.4023">act_new_7</text><ellipse cx="223" cy="41.1992" fill="#000000" filter="url(#f2h1zmngo02ft)" rx="10" ry="10" style="stroke: none; stroke-width: 1.0;"/><polygon fill="#FEFECE" filter="url(#f2h1zmngo02ft)" points="179.5,71.1992,266.5,71.1992,278.5,83.1992,266.5,95.1992,179.5,95.1992,167.5,83.1992,179.5,71.1992" style="stroke: #A80036; stroke-width: 1.5;"/><text fill="#000000" font-family="sans-serif" font-size="11" lengthAdjust="spacingAndGlyphs" textLength="87" x="179.5" y="87.3564">multiprocessor?</text><text fill="#000000" font-family="sans-serif" font-size="11" lengthAdjust="spacingAndGlyphs" textLength="18" x="149.5" y="80.8789">yes</text><text fill="#000000" font-family="sans-serif" font-size="11" lengthAdjust="spacingAndGlyphs" textLength="56" x="278.5" y="80.8789">monoproc</text><rect fill="#000000" filter="url(#f2h1zmngo02ft)" height="6" rx="2.5" ry="2.5" style="stroke: #000000; stroke-width: 1.0;" width="240" x="10" y="105.1992"/><rect fill="#FEFECE" filter="url(#f2h1zmngo02ft)" height="34.1328" rx="12.5" ry="12.5" style="stroke: #A80036; stroke-width: 1.5;" width="92" x="24" y="131.1992"/><text fill="#000000" font-family="sans-serif" font-size="12" lengthAdjust="spacingAndGlyphs" textLength="72" x="34" y="152.8008">Treatment 1</text><rect fill="#FEFECE" filter="url(#f2h1zmngo02ft)" height="34.1328" rx="12.5" ry="12.5" style="stroke: #A80036; stroke-width: 1.5;" width="92" x="144" y="131.1992"/><text fill="#000000" font-family="sans-serif" font-size="12" lengthAdjust="spacingAndGlyphs" textLength="72" x="154" y="152.8008">Treatment 2</text><rect fill="#000000" filter="url(#f2h1zmngo02ft)" height="6" rx="2.5" ry="2.5" style="stroke: #000000; stroke-width: 1.0;" width="240" x="10" y="185.332"/><rect fill="#FEFECE" filter="url(#f2h1zmngo02ft)" height="34.1328" rx="12.5" ry="12.5" style="stroke: #A80036; stroke-width: 1.5;" width="92" x="270" y="105.1992"/><text fill="#000000" font-family="sans-serif" font-size="12" lengthAdjust="spacingAndGlyphs" textLength="72" x="280" y="126.8008">Treatment 1</text><rect fill="#FEFECE" filter="url(#f2h1zmngo02ft)" height="34.1328" rx="12.5" ry="12.5" style="stroke: #A80036; stroke-width: 1.5;" width="92" x="270" y="174.332"/><text fill="#000000" font-family="sans-serif" font-size="12" lengthAdjust="spacingAndGlyphs" textLength="72" x="280" y="195.9336">Treatment 2</text><polygon fill="#FEFECE" filter="url(#f2h1zmngo02ft)" points="223,214.4648,235,226.4648,223,238.4648,211,226.4648,223,214.4648" style="stroke: #A80036; stroke-width: 1.5;"/><line style="stroke: #A80036; stroke-width: 1.5;" x1="70" x2="70" y1="111.1992" y2="131.1992"/><polygon fill="#A80036" points="66,121.1992,70,131.1992,74,121.1992,70,125.1992" style="stroke: #A80036; stroke-width: 1.0;"/><line style="stroke: #A80036; stroke-width: 1.5;" x1="190" x2="190" y1="111.1992" y2="131.1992"/><polygon fill="#A80036" points="186,121.1992,190,131.1992,194,121.1992,190,125.1992" style="stroke: #A80036; stroke-width: 1.0;"/><line style="stroke: #A80036; stroke-width: 1.5;" x1="70" x2="70" y1="165.332" y2="185.332"/><polygon fill="#A80036" points="66,175.332,70,185.332,74,175.332,70,179.332" style="stroke: #A80036; stroke-width: 1.0;"/><line style="stroke: #A80036; stroke-width: 1.5;" x1="190" x2="190" y1="165.332" y2="185.332"/><polygon fill="#A80036" points="186,175.332,190,185.332,194,175.332,190,179.332" style="stroke: #A80036; stroke-width: 1.0;"/><line style="stroke: #A80036; stroke-width: 1.5;" x1="316" x2="316" y1="139.332" y2="174.332"/><polygon fill="#A80036" points="312,164.332,316,174.332,320,164.332,316,168.332" style="stroke: #A80036; stroke-width: 1.0;"/><line style="stroke: #A80036; stroke-width: 1.5;" x1="167.5" x2="130" y1="83.1992" y2="83.1992"/><line style="stroke: #A80036; stroke-width: 1.5;" x1="130" x2="130" y1="83.1992" y2="105.1992"/><polygon fill="#A80036" points="126,95.1992,130,105.1992,134,95.1992,130,99.1992" style="stroke: #A80036; stroke-width: 1.0;"/><line style="stroke: #A80036; stroke-width: 1.5;" x1="278.5" x2="316" y1="83.1992" y2="83.1992"/><line style="stroke: #A80036; stroke-width: 1.5;" x1="316" x2="316" y1="83.1992" y2="105.1992"/><polygon fill="#A80036" points="312,95.1992,316,105.1992,320,95.1992,316,99.1992" style="stroke: #A80036; stroke-width: 1.0;"/><line style="stroke: #A80036; stroke-width: 1.5;" x1="130" x2="130" y1="191.332" y2="226.4648"/><line style="stroke: #A80036; stroke-width: 1.5;" x1="130" x2="211" y1="226.4648" y2="226.4648"/><polygon fill="#A80036" points="201,222.4648,211,226.4648,201,230.4648,205,226.4648" style="stroke: #A80036; stroke-width: 1.0;"/><line style="stroke: #A80036; stroke-width: 1.5;" x1="316" x2="316" y1="208.4648" y2="226.4648"/><line style="stroke: #A80036; stroke-width: 1.5;" x1="316" x2="235" y1="226.4648" y2="226.4648"/><polygon fill="#A80036" points="245,222.4648,235,226.4648,245,230.4648,241,226.4648" style="stroke: #A80036; stroke-width: 1.0;"/><line style="stroke: #A80036; stroke-width: 1.5;" x1="223" x2="223" y1="51.1992" y2="71.1992"/><polygon fill="#A80036" points="219,61.1992,223,71.1992,227,61.1992,223,65.1992" style="stroke: #A80036; stroke-width: 1.0;"/><!--
@startuml
title act_new_7

start

if (multiprocessor?) then (yes)
  fork
    :Treatment 1;
  fork again
    :Treatment 2;
  end fork
else (monoproc)
  :Treatment 1;
  :Treatment 2;
endif

@enduml

PlantUML version 1.2017.19(Sun Nov 12 19:46:22 CST 2017)
(GPL source distribution)
Java Runtime: Java(TM) SE Runtime Environment
JVM: Java HotSpot(TM) 64-Bit Server VM
Java Version: 1.8.0_112-b16
Operating System: Mac OS X
OS Version: 10.12.6
Default Encoding: UTF-8
Language: zh
Country: CN
--></g></svg>