<?xml version="1.0" encoding="UTF-8" standalone="no"?><svg xmlns="http://www.w3.org/2000/svg" xmlns:xlink="http://www.w3.org/1999/xlink" contentScriptType="application/ecmascript" contentStyleType="text/css" height="359px" preserveAspectRatio="none" style="width:400px;height:359px;" version="1.1" viewBox="0 0 400 359" width="400px" zoomAndPan="magnify"><defs><filter height="300%" id="fas6md6m94qmc" width="300%" x="-1" y="-1"><feGaussianBlur result="blurOut" stdDeviation="2.0"/><feColorMatrix in="blurOut" result="blurOut2" type="matrix" values="0 0 0 0 0 0 0 0 0 0 0 0 0 0 0 0 0 0 .4 0"/><feOffset dx="4.0" dy="4.0" in="blurOut2" result="blurOut3"/><feBlend in="SourceGraphic" in2="blurOut3" mode="normal"/></filter></defs><g><text fill="#000000" font-family="sans-serif" font-size="18" lengthAdjust="spacingAndGlyphs" textLength="46" x="180.5" y="17.4023">act_2</text><ellipse cx="332" cy="39.1992" fill="#000000" filter="url(#fas6md6m94qmc)" rx="10" ry="10" style="stroke: none; stroke-width: 1.0;"/><rect fill="#FEFECE" filter="url(#fas6md6m94qmc)" height="34.1328" rx="12.5" ry="12.5" style="stroke: #A80036; stroke-width: 1.5;" width="44" x="310" y="90.1992"/><text fill="#000000" font-family="sans-serif" font-size="12" lengthAdjust="spacingAndGlyphs" textLength="24" x="320" y="111.8008">开始</text><rect fill="#FEFECE" filter="url(#fas6md6m94qmc)" height="34.1328" rx="12.5" ry="12.5" style="stroke: #A80036; stroke-width: 1.5;" width="68" x="298" y="165.1992"/><text fill="#000000" font-family="sans-serif" font-size="12" lengthAdjust="spacingAndGlyphs" textLength="48" x="308" y="186.8008">节点名称</text><rect fill="#FEFECE" filter="url(#fas6md6m94qmc)" height="34.1328" rx="12.5" ry="12.5" style="stroke: #A80036; stroke-width: 1.5;" width="76" x="294" y="253.1992"/><text fill="#000000" font-family="sans-serif" font-size="12" lengthAdjust="spacingAndGlyphs" textLength="56" x="304" y="274.8008">节点名称0</text><rect fill="#FEFECE" filter="url(#fas6md6m94qmc)" height="34.1328" rx="12.5" ry="12.5" style="stroke: #A80036; stroke-width: 1.5;" width="76" x="201" y="165.1992"/><text fill="#000000" font-family="sans-serif" font-size="12" lengthAdjust="spacingAndGlyphs" textLength="56" x="211" y="186.8008">节点名称1</text><rect fill="#FEFECE" filter="url(#fas6md6m94qmc)" height="34.1328" rx="12.5" ry="12.5" style="stroke: #A80036; stroke-width: 1.5;" width="76" x="198" y="253.1992"/><text fill="#000000" font-family="sans-serif" font-size="12" lengthAdjust="spacingAndGlyphs" textLength="56" x="208" y="274.8008">节点名称2</text><rect fill="#FEFECE" filter="url(#fas6md6m94qmc)" height="34.1328" rx="12.5" ry="12.5" style="stroke: #A80036; stroke-width: 1.5;" width="76" x="6" y="253.1992"/><text fill="#000000" font-family="sans-serif" font-size="12" lengthAdjust="spacingAndGlyphs" textLength="56" x="16" y="274.8008">节点名称3</text><rect fill="#FEFECE" filter="url(#fas6md6m94qmc)" height="34.1328" rx="12.5" ry="12.5" style="stroke: #A80036; stroke-width: 1.5;" width="76" x="102" y="253.1992"/><text fill="#000000" font-family="sans-serif" font-size="12" lengthAdjust="spacingAndGlyphs" textLength="56" x="112" y="274.8008">节点名称4</text><ellipse cx="140" cy="338.1992" fill="none" filter="url(#fas6md6m94qmc)" rx="10" ry="10" style="stroke: #000000; stroke-width: 1.0;"/><ellipse cx="140.5" cy="338.6992" fill="#000000" rx="6" ry="6" style="stroke: none; stroke-width: 1.0;"/><!--link start to 开始--><path d="M332,49.2328 C332,58.6074 332,72.9277 332,84.989 " fill="none" id="start-开始" style="stroke: #A80036; stroke-width: 1.0;"/><polygon fill="#A80036" points="332,89.9987,336,80.9987,332,84.9987,328,80.9987,332,89.9987" style="stroke: #A80036; stroke-width: 1.0;"/><!--link 开始 to 节点名称--><path d="M332,124.2179 C332,134.7869 332,148.4871 332,159.9163 " fill="none" id="开始-节点名称" style="stroke: #A80036; stroke-width: 1.0;"/><polygon fill="#A80036" points="332,164.9883,336,155.9883,332,159.9883,328,155.9883,332,164.9883" style="stroke: #A80036; stroke-width: 1.0;"/><!--link 节点名称 to 节点名称0--><path d="M332,199.5852 C332,213.4146 332,232.8627 332,247.8483 " fill="none" id="节点名称-节点名称0" style="stroke: #A80036; stroke-width: 1.0;"/><polygon fill="#A80036" points="332,253.1488,336,244.1488,332,248.1488,328,244.1488,332,253.1488" style="stroke: #A80036; stroke-width: 1.0;"/><text fill="#000000" font-family="sans-serif" font-size="11" lengthAdjust="spacingAndGlyphs" textLength="55" x="333" y="230.834">箭头的注释</text><!--link 节点名称1 to 节点名称0--><path d="M261.3498,203.3474 C277.4712,218.6021 298.9533,238.9292 313.9808,253.1488 " fill="none" id="节点名称1-节点名称0" style="stroke: #A80036; stroke-width: 1.0;"/><polygon fill="#A80036" points="257.3738,199.5852,261.1617,208.6765,261.0056,203.0218,266.6603,202.8657,257.3738,199.5852" style="stroke: #A80036; stroke-width: 1.0;"/><!--link 节点名称1 to 节点名称2--><path d="M238.4073,199.5852 C237.9358,213.4146 237.2728,232.8627 236.762,247.8483 " fill="none" id="节点名称1-节点名称2" style="stroke: #A80036; stroke-width: 1.0;"/><polygon fill="#A80036" points="236.5813,253.1488,240.8857,244.2904,236.7517,248.1517,232.8904,244.0177,236.5813,253.1488" style="stroke: #A80036; stroke-width: 1.0;"/><!--link 节点名称3 to 节点名称2--><path d="M64.457,249.4317 C74.7714,240.433 88.0402,230.8951 102,226.1992 C134.0149,215.4297 145.9851,215.4297 178,226.1992 C193.8129,231.5185 208.7391,243.0505 219.4889,252.9741 " fill="none" id="节点名称3-节点名称2" style="stroke: #A80036; stroke-width: 1.0;"/><polygon fill="#A80036" points="60.5111,252.9741,69.8804,249.9384,64.2318,249.634,64.5362,243.9853,60.5111,252.9741" style="stroke: #A80036; stroke-width: 1.0;"/><!--link 节点名称3 to 节点名称4--><path d="M82.25,270.1992 C86.9991,270.1992 91.7481,270.1992 96.4972,270.1992 " fill="none" id="节点名称3-节点名称4" style="stroke: #A80036; stroke-width: 1.0;"/><polygon fill="#A80036" points="101.6504,270.1992,92.6504,266.1992,96.6504,270.1992,92.6504,274.1992,101.6504,270.1992" style="stroke: #A80036; stroke-width: 1.0;"/><!--link 节点名称4 to end--><path d="M140,287.3585 C140,298.2139 140,312.1335 140,322.6625 " fill="none" id="节点名称4-end" style="stroke: #A80036; stroke-width: 1.0;"/><polygon fill="#A80036" points="140,327.8252,144,318.8252,140,322.8252,136,318.8252,140,327.8252" style="stroke: #A80036; stroke-width: 1.0;"/><!--
@startuml

title act_2

(*)- ->"开始"
- ->  "节点名称"
- ->[箭头的注释]  "节点名称0"
-up->  "节点名称1"
-down->  "节点名称2"
-left->  "节点名称3"
-right->  "节点名称4"
- ->(*) 
@enduml

PlantUML version 1.2017.19(Sun Nov 12 19:46:22 CST 2017)
(GPL source distribution)
Java Runtime: Java(TM) SE Runtime Environment
JVM: Java HotSpot(TM) 64-Bit Server VM
Java Version: 1.8.0_112-b16
Operating System: Mac OS X
OS Version: 10.12.6
Default Encoding: UTF-8
Language: zh
Country: CN
--></g></svg>