<?xml version="1.0" encoding="UTF-8" standalone="no"?><svg xmlns="http://www.w3.org/2000/svg" xmlns:xlink="http://www.w3.org/1999/xlink" contentScriptType="application/ecmascript" contentStyleType="text/css" height="305px" preserveAspectRatio="none" style="width:175px;height:305px;" version="1.1" viewBox="0 0 175 305" width="175px" zoomAndPan="magnify"><defs><filter height="300%" id="fjkyq6m23wr1c" width="300%" x="-1" y="-1"><feGaussianBlur result="blurOut" stdDeviation="2.0"/><feColorMatrix in="blurOut" result="blurOut2" type="matrix" values="0 0 0 0 0 0 0 0 0 0 0 0 0 0 0 0 0 0 .4 0"/><feOffset dx="4.0" dy="4.0" in="blurOut2" result="blurOut3"/><feBlend in="SourceGraphic" in2="blurOut3" mode="normal"/></filter></defs><g><text fill="#000000" font-family="sans-serif" font-size="18" lengthAdjust="spacingAndGlyphs" textLength="90" x="41.5" y="27.4023">act_new_4</text><ellipse cx="78.5" cy="41.1992" fill="#000000" filter="url(#fjkyq6m23wr1c)" rx="10" ry="10" style="stroke: none; stroke-width: 1.0;"/><rect fill="#FEFECE" filter="url(#fjkyq6m23wr1c)" height="34.1328" rx="12.5" ry="12.5" style="stroke: #A80036; stroke-width: 1.5;" width="68" x="44.5" y="115.1992"/><text fill="#000000" font-family="sans-serif" font-size="12" lengthAdjust="spacingAndGlyphs" textLength="48" x="54.5" y="136.8008">读取文件</text><rect fill="#FEFECE" filter="url(#fjkyq6m23wr1c)" height="34.1328" rx="12.5" ry="12.5" style="stroke: #A80036; stroke-width: 1.5;" width="102" x="27.5" y="176.832"/><text fill="#000000" font-family="sans-serif" font-size="12" lengthAdjust="spacingAndGlyphs" textLength="82" x="37.5" y="198.4336">编译 diagrams</text><polygon fill="#FEFECE" filter="url(#fjkyq6m23wr1c)" points="78.5,71.1992,90.5,83.1992,78.5,95.1992,66.5,83.1992,78.5,71.1992" style="stroke: #A80036; stroke-width: 1.5;"/><polygon fill="#FEFECE" filter="url(#fjkyq6m23wr1c)" points="32,230.9648,125,230.9648,137,242.9648,125,254.9648,32,254.9648,20,242.9648,32,230.9648" style="stroke: #A80036; stroke-width: 1.5;"/><text fill="#000000" font-family="sans-serif" font-size="11" lengthAdjust="spacingAndGlyphs" textLength="93" x="32" y="247.1221">更多，执行下一个?</text><ellipse cx="78.5" cy="284.9648" fill="none" filter="url(#fjkyq6m23wr1c)" rx="10" ry="10" style="stroke: #000000; stroke-width: 1.0;"/><ellipse cx="79" cy="285.4648" fill="#000000" filter="url(#fjkyq6m23wr1c)" rx="6" ry="6" style="stroke: none; stroke-width: 1.0;"/><line style="stroke: #A80036; stroke-width: 1.5;" x1="78.5" x2="78.5" y1="149.332" y2="176.832"/><polygon fill="#A80036" points="74.5,166.832,78.5,176.832,82.5,166.832,78.5,170.832" style="stroke: #A80036; stroke-width: 1.0;"/><line style="stroke: #A80036; stroke-width: 1.5;" x1="78.5" x2="78.5" y1="95.1992" y2="115.1992"/><polygon fill="#A80036" points="74.5,105.1992,78.5,115.1992,82.5,105.1992,78.5,109.1992" style="stroke: #A80036; stroke-width: 1.0;"/><line style="stroke: #A80036; stroke-width: 1.5;" x1="137" x2="149" y1="242.9648" y2="242.9648"/><polygon fill="#A80036" points="145,169.332,149,159.332,153,169.332,149,165.332" style="stroke: #A80036; stroke-width: 1.5;"/><line style="stroke: #A80036; stroke-width: 1.5;" x1="149" x2="149" y1="83.1992" y2="242.9648"/><line style="stroke: #A80036; stroke-width: 1.5;" x1="149" x2="90.5" y1="83.1992" y2="83.1992"/><polygon fill="#A80036" points="100.5,79.1992,90.5,83.1992,100.5,87.1992,96.5,83.1992" style="stroke: #A80036; stroke-width: 1.0;"/><line style="stroke: #A80036; stroke-width: 1.5;" x1="78.5" x2="78.5" y1="210.9648" y2="230.9648"/><polygon fill="#A80036" points="74.5,220.9648,78.5,230.9648,82.5,220.9648,78.5,224.9648" style="stroke: #A80036; stroke-width: 1.0;"/><line style="stroke: #A80036; stroke-width: 1.5;" x1="78.5" x2="78.5" y1="51.1992" y2="71.1992"/><polygon fill="#A80036" points="74.5,61.1992,78.5,71.1992,82.5,61.1992,78.5,65.1992" style="stroke: #A80036; stroke-width: 1.0;"/><line style="stroke: #A80036; stroke-width: 1.5;" x1="78.5" x2="78.5" y1="254.9648" y2="274.9648"/><polygon fill="#A80036" points="74.5,264.9648,78.5,274.9648,82.5,264.9648,78.5,268.9648" style="stroke: #A80036; stroke-width: 1.0;"/><!--
@startuml
title act_new_4

start

repeat
    :读取文件;
    :编译 diagrams;
repeat while (更多，执行下一个?)

stop
@enduml

PlantUML version 1.2017.19(Sun Nov 12 19:46:22 CST 2017)
(GPL source distribution)
Java Runtime: Java(TM) SE Runtime Environment
JVM: Java HotSpot(TM) 64-Bit Server VM
Java Version: 1.8.0_112-b16
Operating System: Mac OS X
OS Version: 10.12.6
Default Encoding: UTF-8
Language: zh
Country: CN
--></g></svg>