<?xml version="1.0" encoding="UTF-8" standalone="no"?><svg xmlns="http://www.w3.org/2000/svg" xmlns:xlink="http://www.w3.org/1999/xlink" contentScriptType="application/ecmascript" contentStyleType="text/css" height="928px" preserveAspectRatio="none" style="width:450px;height:928px;" version="1.1" viewBox="0 0 450 928" width="450px" zoomAndPan="magnify"><defs><filter height="300%" id="fwwm6x6zv4loy" width="300%" x="-1" y="-1"><feGaussianBlur result="blurOut" stdDeviation="2.0"/><feColorMatrix in="blurOut" result="blurOut2" type="matrix" values="0 0 0 0 0 0 0 0 0 0 0 0 0 0 0 0 0 0 .4 0"/><feOffset dx="4.0" dy="4.0" in="blurOut2" result="blurOut3"/><feBlend in="SourceGraphic" in2="blurOut3" mode="normal"/></filter></defs><g><text fill="#000000" font-family="sans-serif" font-size="18" lengthAdjust="spacingAndGlyphs" textLength="101" x="173.5" y="27.4023">act_new_10</text><ellipse cx="177.375" cy="41.1992" fill="#000000" filter="url(#fwwm6x6zv4loy)" rx="10" ry="10" style="stroke: none; stroke-width: 1.0;"/><rect fill="#FEFECE" filter="url(#fwwm6x6zv4loy)" height="34.1328" rx="12.5" ry="12.5" style="stroke: #A80036; stroke-width: 1.5;" width="183" x="85.875" y="71.1992"/><text fill="#000000" font-family="sans-serif" font-size="12" lengthAdjust="spacingAndGlyphs" textLength="163" x="95.875" y="92.8008">ClickServlet.handleRequest()</text><rect fill="#FEFECE" filter="url(#fwwm6x6zv4loy)" height="34.1328" rx="12.5" ry="12.5" style="stroke: #A80036; stroke-width: 1.5;" width="76" x="139.375" y="125.332"/><text fill="#000000" font-family="sans-serif" font-size="12" lengthAdjust="spacingAndGlyphs" textLength="56" x="149.375" y="146.9336">new page</text><rect fill="#7C7C7C" filter="url(#fwwm6x6zv4loy)" height="34.1328" rx="12.5" ry="12.5" style="stroke: #A80036; stroke-width: 1.5;" width="91" x="131.875" y="227.9424"/><text fill="#000000" font-family="sans-serif" font-size="12" lengthAdjust="spacingAndGlyphs" textLength="71" x="141.875" y="249.5439">Page.onInit()</text><rect fill="#FF0000" filter="url(#fwwm6x6zv4loy)" height="34.1328" rx="12.5" ry="12.5" style="stroke: #A80036; stroke-width: 1.5;" width="113" x="120.875" y="330.5527"/><text fill="#000000" font-family="sans-serif" font-size="12" lengthAdjust="spacingAndGlyphs" textLength="93" x="130.875" y="352.1543">Process controls</text><polygon fill="#FEFECE" filter="url(#fwwm6x6zv4loy)" points="119.875,384.6855,234.875,384.6855,246.875,396.6855,234.875,408.6855,119.875,408.6855,107.875,396.6855,119.875,384.6855" style="stroke: #A80036; stroke-width: 1.5;"/><text fill="#000000" font-family="sans-serif" font-size="11" lengthAdjust="spacingAndGlyphs" textLength="115" x="119.875" y="400.8428">continue processing?</text><text fill="#000000" font-family="sans-serif" font-size="11" lengthAdjust="spacingAndGlyphs" textLength="14" x="246.875" y="394.3652">no</text><ellipse cx="282.875" cy="396.6855" fill="#FFFFFF" filter="url(#fwwm6x6zv4loy)" rx="11" ry="11" style="stroke: #000000; stroke-width: 1.0;"/><ellipse cx="282.875" cy="396.6855" fill="#000000" rx="6" ry="6" style="stroke: #7F7F7F; stroke-width: 1.0;"/><polygon fill="#FEFECE" filter="url(#fwwm6x6zv4loy)" points="158.875,453.1191,195.875,453.1191,207.875,465.1191,195.875,477.1191,158.875,477.1191,146.875,465.1191,158.875,453.1191" style="stroke: #A80036; stroke-width: 1.5;"/><text fill="#000000" font-family="sans-serif" font-size="11" lengthAdjust="spacingAndGlyphs" textLength="37" x="158.875" y="469.2764">isPost?</text><text fill="#000000" font-family="sans-serif" font-size="11" lengthAdjust="spacingAndGlyphs" textLength="18" x="128.875" y="462.7988">yes</text><text fill="#000000" font-family="sans-serif" font-size="11" lengthAdjust="spacingAndGlyphs" textLength="14" x="207.875" y="462.7988">no</text><rect fill="#FEFECE" filter="url(#fwwm6x6zv4loy)" height="34.1328" rx="12.5" ry="12.5" style="stroke: #A80036; stroke-width: 1.5;" width="98" x="70.375" y="487.1191"/><text fill="#000000" font-family="sans-serif" font-size="12" lengthAdjust="spacingAndGlyphs" textLength="78" x="80.375" y="508.7207">Page.onPost()</text><rect fill="#FEFECE" filter="url(#fwwm6x6zv4loy)" height="34.1328" rx="12.5" ry="12.5" style="stroke: #A80036; stroke-width: 1.5;" width="94" x="188.375" y="487.1191"/><text fill="#000000" font-family="sans-serif" font-size="12" lengthAdjust="spacingAndGlyphs" textLength="74" x="198.375" y="508.7207">Page.onGet()</text><polygon fill="#FEFECE" filter="url(#fwwm6x6zv4loy)" points="177.375,527.252,189.375,539.252,177.375,551.252,165.375,539.252,177.375,527.252" style="stroke: #A80036; stroke-width: 1.5;"/><rect fill="#FEFECE" filter="url(#fwwm6x6zv4loy)" height="34.1328" rx="12.5" ry="12.5" style="stroke: #A80036; stroke-width: 1.5;" width="116" x="119.375" y="571.252"/><text fill="#000000" font-family="sans-serif" font-size="12" lengthAdjust="spacingAndGlyphs" textLength="96" x="129.375" y="592.8535">Page.onRender()</text><polygon fill="#FEFECE" filter="url(#fwwm6x6zv4loy)" points="148.375,282.0752,206.375,282.0752,218.375,294.0752,206.375,306.0752,148.375,306.0752,136.375,294.0752,148.375,282.0752" style="stroke: #A80036; stroke-width: 1.5;"/><text fill="#000000" font-family="sans-serif" font-size="11" lengthAdjust="spacingAndGlyphs" textLength="14" x="181.375" y="316.71">no</text><text fill="#000000" font-family="sans-serif" font-size="11" lengthAdjust="spacingAndGlyphs" textLength="58" x="148.375" y="298.2324">isForward?</text><polygon fill="#FEFECE" filter="url(#fwwm6x6zv4loy)" points="177.375,625.3848,189.375,637.3848,177.375,649.3848,165.375,637.3848,177.375,625.3848" style="stroke: #A80036; stroke-width: 1.5;"/><polygon fill="#FEFECE" filter="url(#fwwm6x6zv4loy)" points="118.375,179.4648,236.375,179.4648,248.375,191.4648,236.375,203.4648,118.375,203.4648,106.375,191.4648,118.375,179.4648" style="stroke: #A80036; stroke-width: 1.5;"/><text fill="#000000" font-family="sans-serif" font-size="11" lengthAdjust="spacingAndGlyphs" textLength="22" x="181.375" y="214.0996">true</text><text fill="#000000" font-family="sans-serif" font-size="11" lengthAdjust="spacingAndGlyphs" textLength="118" x="118.375" y="195.6221">Page.onSecurityCheck</text><text fill="#000000" font-family="sans-serif" font-size="11" lengthAdjust="spacingAndGlyphs" textLength="25" x="248.375" y="189.1445">false</text><polygon fill="#FEFECE" filter="url(#fwwm6x6zv4loy)" points="177.375,669.3848,189.375,681.3848,177.375,693.3848,165.375,681.3848,177.375,669.3848" style="stroke: #A80036; stroke-width: 1.5;"/><polygon fill="#FEFECE" filter="url(#fwwm6x6zv4loy)" points="145.375,713.3848,209.375,713.3848,221.375,725.3848,209.375,737.3848,145.375,737.3848,133.375,725.3848,145.375,713.3848" style="stroke: #A80036; stroke-width: 1.5;"/><text fill="#000000" font-family="sans-serif" font-size="11" lengthAdjust="spacingAndGlyphs" textLength="64" x="145.375" y="729.542">do redirect?</text><text fill="#000000" font-family="sans-serif" font-size="11" lengthAdjust="spacingAndGlyphs" textLength="18" x="115.375" y="723.0645">yes</text><rect fill="#FEFECE" filter="url(#fwwm6x6zv4loy)" height="34.1328" rx="12.5" ry="12.5" style="stroke: #A80036; stroke-width: 1.5;" width="114" x="10" y="747.3848"/><text fill="#000000" font-family="sans-serif" font-size="12" lengthAdjust="spacingAndGlyphs" textLength="94" x="20" y="768.9863">redirect process</text><polygon fill="#FEFECE" filter="url(#fwwm6x6zv4loy)" points="255.75,747.3848,319.75,747.3848,331.75,759.3848,319.75,771.3848,255.75,771.3848,243.75,759.3848,255.75,747.3848" style="stroke: #A80036; stroke-width: 1.5;"/><text fill="#000000" font-family="sans-serif" font-size="11" lengthAdjust="spacingAndGlyphs" textLength="64" x="255.75" y="763.542">do forward?</text><text fill="#000000" font-family="sans-serif" font-size="11" lengthAdjust="spacingAndGlyphs" textLength="18" x="225.75" y="757.0645">yes</text><text fill="#000000" font-family="sans-serif" font-size="11" lengthAdjust="spacingAndGlyphs" textLength="14" x="331.75" y="757.0645">no</text><rect fill="#FEFECE" filter="url(#fwwm6x6zv4loy)" height="34.1328" rx="12.5" ry="12.5" style="stroke: #A80036; stroke-width: 1.5;" width="115" x="154" y="781.3848"/><text fill="#000000" font-family="sans-serif" font-size="12" lengthAdjust="spacingAndGlyphs" textLength="95" x="164" y="802.9863">Forward request</text><rect fill="#FEFECE" filter="url(#fwwm6x6zv4loy)" height="34.1328" rx="12.5" ry="12.5" style="stroke: #A80036; stroke-width: 1.5;" width="150" x="289" y="781.3848"/><text fill="#000000" font-family="sans-serif" font-size="12" lengthAdjust="spacingAndGlyphs" textLength="130" x="299" y="802.9863">Render page template</text><polygon fill="#FEFECE" filter="url(#fwwm6x6zv4loy)" points="287.75,821.5176,299.75,833.5176,287.75,845.5176,275.75,833.5176,287.75,821.5176" style="stroke: #A80036; stroke-width: 1.5;"/><polygon fill="#FEFECE" filter="url(#fwwm6x6zv4loy)" points="177.375,851.5176,189.375,863.5176,177.375,875.5176,165.375,863.5176,177.375,851.5176" style="stroke: #A80036; stroke-width: 1.5;"/><ellipse cx="177.375" cy="906.5176" fill="#FFFFFF" filter="url(#fwwm6x6zv4loy)" rx="11" ry="11" style="stroke: #000000; stroke-width: 1.0;"/><ellipse cx="177.375" cy="906.5176" fill="#000000" rx="6" ry="6" style="stroke: #7F7F7F; stroke-width: 1.0;"/><line style="stroke: #A80036; stroke-width: 1.5;" x1="177.375" x2="177.375" y1="51.1992" y2="71.1992"/><polygon fill="#A80036" points="173.375,61.1992,177.375,71.1992,181.375,61.1992,177.375,65.1992" style="stroke: #A80036; stroke-width: 1.0;"/><line style="stroke: #A80036; stroke-width: 1.5;" x1="177.375" x2="177.375" y1="105.332" y2="125.332"/><polygon fill="#A80036" points="173.375,115.332,177.375,125.332,181.375,115.332,177.375,119.332" style="stroke: #A80036; stroke-width: 1.0;"/><line style="stroke: #A80036; stroke-width: 1.5;" x1="177.375" x2="177.375" y1="408.6855" y2="453.1191"/><polygon fill="#A80036" points="173.375,443.1191,177.375,453.1191,181.375,443.1191,177.375,447.1191" style="stroke: #A80036; stroke-width: 1.0;"/><line style="stroke: #A80036; stroke-width: 1.5;" x1="246.875" x2="271.875" y1="396.6855" y2="396.6855"/><polygon fill="#A80036" points="261.875,392.6855,271.875,396.6855,261.875,400.6855,265.875,396.6855" style="stroke: #A80036; stroke-width: 1.0;"/><line style="stroke: #A80036; stroke-width: 1.5;" x1="177.375" x2="177.375" y1="364.6855" y2="384.6855"/><polygon fill="#A80036" points="173.375,374.6855,177.375,384.6855,181.375,374.6855,177.375,378.6855" style="stroke: #A80036; stroke-width: 1.0;"/><line style="stroke: #A80036; stroke-width: 1.5;" x1="146.875" x2="119.375" y1="465.1191" y2="465.1191"/><line style="stroke: #A80036; stroke-width: 1.5;" x1="119.375" x2="119.375" y1="465.1191" y2="487.1191"/><polygon fill="#A80036" points="115.375,477.1191,119.375,487.1191,123.375,477.1191,119.375,481.1191" style="stroke: #A80036; stroke-width: 1.0;"/><line style="stroke: #A80036; stroke-width: 1.5;" x1="207.875" x2="235.375" y1="465.1191" y2="465.1191"/><line style="stroke: #A80036; stroke-width: 1.5;" x1="235.375" x2="235.375" y1="465.1191" y2="487.1191"/><polygon fill="#A80036" points="231.375,477.1191,235.375,487.1191,239.375,477.1191,235.375,481.1191" style="stroke: #A80036; stroke-width: 1.0;"/><line style="stroke: #A80036; stroke-width: 1.5;" x1="119.375" x2="119.375" y1="521.252" y2="539.252"/><line style="stroke: #A80036; stroke-width: 1.5;" x1="119.375" x2="165.375" y1="539.252" y2="539.252"/><polygon fill="#A80036" points="155.375,535.252,165.375,539.252,155.375,543.252,159.375,539.252" style="stroke: #A80036; stroke-width: 1.0;"/><line style="stroke: #A80036; stroke-width: 1.5;" x1="235.375" x2="235.375" y1="521.252" y2="539.252"/><line style="stroke: #A80036; stroke-width: 1.5;" x1="235.375" x2="189.375" y1="539.252" y2="539.252"/><polygon fill="#A80036" points="199.375,535.252,189.375,539.252,199.375,543.252,195.375,539.252" style="stroke: #A80036; stroke-width: 1.0;"/><line style="stroke: #A80036; stroke-width: 1.5;" x1="177.375" x2="177.375" y1="551.252" y2="571.252"/><polygon fill="#A80036" points="173.375,561.252,177.375,571.252,181.375,561.252,177.375,565.252" style="stroke: #A80036; stroke-width: 1.0;"/><line style="stroke: #A80036; stroke-width: 1.5;" x1="177.375" x2="177.375" y1="306.0752" y2="330.5527"/><polygon fill="#A80036" points="173.375,320.5527,177.375,330.5527,181.375,320.5527,177.375,324.5527" style="stroke: #A80036; stroke-width: 1.0;"/><line style="stroke: #A80036; stroke-width: 1.5;" x1="218.375" x2="315.875" y1="294.0752" y2="294.0752"/><polygon fill="#A80036" points="311.875,438.6855,315.875,448.6855,319.875,438.6855,315.875,442.6855" style="stroke: #A80036; stroke-width: 1.5;"/><line style="stroke: #A80036; stroke-width: 1.5;" x1="315.875" x2="315.875" y1="294.0752" y2="637.3848"/><line style="stroke: #A80036; stroke-width: 1.5;" x1="315.875" x2="189.375" y1="637.3848" y2="637.3848"/><polygon fill="#A80036" points="199.375,633.3848,189.375,637.3848,199.375,641.3848,195.375,637.3848" style="stroke: #A80036; stroke-width: 1.0;"/><line style="stroke: #A80036; stroke-width: 1.5;" x1="177.375" x2="177.375" y1="605.3848" y2="625.3848"/><polygon fill="#A80036" points="173.375,615.3848,177.375,625.3848,181.375,615.3848,177.375,619.3848" style="stroke: #A80036; stroke-width: 1.0;"/><line style="stroke: #A80036; stroke-width: 1.5;" x1="177.375" x2="177.375" y1="262.0752" y2="282.0752"/><polygon fill="#A80036" points="173.375,272.0752,177.375,282.0752,181.375,272.0752,177.375,276.0752" style="stroke: #A80036; stroke-width: 1.0;"/><line style="stroke: #A80036; stroke-width: 1.5;" x1="177.375" x2="177.375" y1="203.4648" y2="227.9424"/><polygon fill="#A80036" points="173.375,217.9424,177.375,227.9424,181.375,217.9424,177.375,221.9424" style="stroke: #A80036; stroke-width: 1.0;"/><line style="stroke: #A80036; stroke-width: 1.5;" x1="248.375" x2="337.875" y1="191.4648" y2="191.4648"/><polygon fill="#A80036" points="333.875,418.6855,337.875,428.6855,341.875,418.6855,337.875,422.6855" style="stroke: #A80036; stroke-width: 1.5;"/><line style="stroke: #A80036; stroke-width: 1.5;" x1="337.875" x2="337.875" y1="191.4648" y2="681.3848"/><line style="stroke: #A80036; stroke-width: 1.5;" x1="337.875" x2="189.375" y1="681.3848" y2="681.3848"/><polygon fill="#A80036" points="199.375,677.3848,189.375,681.3848,199.375,685.3848,195.375,681.3848" style="stroke: #A80036; stroke-width: 1.0;"/><line style="stroke: #A80036; stroke-width: 1.5;" x1="177.375" x2="177.375" y1="649.3848" y2="669.3848"/><polygon fill="#A80036" points="173.375,659.3848,177.375,669.3848,181.375,659.3848,177.375,663.3848" style="stroke: #A80036; stroke-width: 1.0;"/><line style="stroke: #A80036; stroke-width: 1.5;" x1="177.375" x2="177.375" y1="159.4648" y2="179.4648"/><polygon fill="#A80036" points="173.375,169.4648,177.375,179.4648,181.375,169.4648,177.375,173.4648" style="stroke: #A80036; stroke-width: 1.0;"/><line style="stroke: #A80036; stroke-width: 1.5;" x1="243.75" x2="211.5" y1="759.3848" y2="759.3848"/><line style="stroke: #A80036; stroke-width: 1.5;" x1="211.5" x2="211.5" y1="759.3848" y2="781.3848"/><polygon fill="#A80036" points="207.5,771.3848,211.5,781.3848,215.5,771.3848,211.5,775.3848" style="stroke: #A80036; stroke-width: 1.0;"/><line style="stroke: #A80036; stroke-width: 1.5;" x1="331.75" x2="364" y1="759.3848" y2="759.3848"/><line style="stroke: #A80036; stroke-width: 1.5;" x1="364" x2="364" y1="759.3848" y2="781.3848"/><polygon fill="#A80036" points="360,771.3848,364,781.3848,368,771.3848,364,775.3848" style="stroke: #A80036; stroke-width: 1.0;"/><line style="stroke: #A80036; stroke-width: 1.5;" x1="211.5" x2="211.5" y1="815.5176" y2="833.5176"/><line style="stroke: #A80036; stroke-width: 1.5;" x1="211.5" x2="275.75" y1="833.5176" y2="833.5176"/><polygon fill="#A80036" points="265.75,829.5176,275.75,833.5176,265.75,837.5176,269.75,833.5176" style="stroke: #A80036; stroke-width: 1.0;"/><line style="stroke: #A80036; stroke-width: 1.5;" x1="364" x2="364" y1="815.5176" y2="833.5176"/><line style="stroke: #A80036; stroke-width: 1.5;" x1="364" x2="299.75" y1="833.5176" y2="833.5176"/><polygon fill="#A80036" points="309.75,829.5176,299.75,833.5176,309.75,837.5176,305.75,833.5176" style="stroke: #A80036; stroke-width: 1.0;"/><line style="stroke: #A80036; stroke-width: 1.5;" x1="133.375" x2="67" y1="725.3848" y2="725.3848"/><line style="stroke: #A80036; stroke-width: 1.5;" x1="67" x2="67" y1="725.3848" y2="747.3848"/><polygon fill="#A80036" points="63,737.3848,67,747.3848,71,737.3848,67,741.3848" style="stroke: #A80036; stroke-width: 1.0;"/><line style="stroke: #A80036; stroke-width: 1.5;" x1="221.375" x2="287.75" y1="725.3848" y2="725.3848"/><line style="stroke: #A80036; stroke-width: 1.5;" x1="287.75" x2="287.75" y1="725.3848" y2="747.3848"/><polygon fill="#A80036" points="283.75,737.3848,287.75,747.3848,291.75,737.3848,287.75,741.3848" style="stroke: #A80036; stroke-width: 1.0;"/><line style="stroke: #A80036; stroke-width: 1.5;" x1="67" x2="67" y1="781.5176" y2="863.5176"/><line style="stroke: #A80036; stroke-width: 1.5;" x1="67" x2="165.375" y1="863.5176" y2="863.5176"/><polygon fill="#A80036" points="155.375,859.5176,165.375,863.5176,155.375,867.5176,159.375,863.5176" style="stroke: #A80036; stroke-width: 1.0;"/><line style="stroke: #A80036; stroke-width: 1.5;" x1="287.75" x2="287.75" y1="845.5176" y2="863.5176"/><line style="stroke: #A80036; stroke-width: 1.5;" x1="287.75" x2="189.375" y1="863.5176" y2="863.5176"/><polygon fill="#A80036" points="199.375,859.5176,189.375,863.5176,199.375,867.5176,195.375,863.5176" style="stroke: #A80036; stroke-width: 1.0;"/><line style="stroke: #A80036; stroke-width: 1.5;" x1="177.375" x2="177.375" y1="693.3848" y2="713.3848"/><polygon fill="#A80036" points="173.375,703.3848,177.375,713.3848,181.375,703.3848,177.375,707.3848" style="stroke: #A80036; stroke-width: 1.0;"/><line style="stroke: #A80036; stroke-width: 1.5;" x1="177.375" x2="177.375" y1="875.5176" y2="895.5176"/><polygon fill="#A80036" points="173.375,885.5176,177.375,895.5176,181.375,885.5176,177.375,889.5176" style="stroke: #A80036; stroke-width: 1.0;"/><!--
@startuml
title act_new_10

start
:ClickServlet.handleRequest();
:new page;
if (Page.onSecurityCheck) then (true)
    #7c7c7c:Page.onInit();
    if (isForward?) then (no)
    #red:Process controls;
    if (continue processing?) then (no)
        stop
    endif

    if (isPost?) then (yes)
        :Page.onPost();
    else (no)
        :Page.onGet();
    endif
    :Page.onRender();
    endif
else (false)
endif

if (do redirect?) then (yes)
    :redirect process;
else
    if (do forward?) then (yes)
    :Forward request;
    else (no)
    :Render page template;
    endif
endif

stop

@enduml

PlantUML version 1.2019.06(Sat May 25 01:10:25 CST 2019)
(GPL source distribution)
Java Runtime: OpenJDK Runtime Environment
JVM: OpenJDK 64-Bit Server VM
Java Version: 11.0.2+9
Operating System: Mac OS X
OS Version: 10.14.5
Default Encoding: UTF-8
Language: zh
Country: CN
--></g></svg>