<?xml version="1.0" encoding="UTF-8" standalone="no"?><svg xmlns="http://www.w3.org/2000/svg" xmlns:xlink="http://www.w3.org/1999/xlink" contentScriptType="application/ecmascript" contentStyleType="text/css" height="234px" preserveAspectRatio="none" style="width:305px;height:234px;" version="1.1" viewBox="0 0 305 234" width="305px" zoomAndPan="magnify"><defs><filter height="300%" id="f19ymtdlcbnaqe" width="300%" x="-1" y="-1"><feGaussianBlur result="blurOut" stdDeviation="2.0"/><feColorMatrix in="blurOut" result="blurOut2" type="matrix" values="0 0 0 0 0 0 0 0 0 0 0 0 0 0 0 0 0 0 .4 0"/><feOffset dx="4.0" dy="4.0" in="blurOut2" result="blurOut3"/><feBlend in="SourceGraphic" in2="blurOut3" mode="normal"/></filter></defs><g><text fill="#000000" font-family="sans-serif" font-size="18" lengthAdjust="spacingAndGlyphs" textLength="90" x="106.5" y="27.4023">act_new_3</text><ellipse cx="124" cy="41.1992" fill="#000000" filter="url(#f19ymtdlcbnaqe)" rx="10" ry="10" style="stroke: none; stroke-width: 1.0;"/><polygon fill="#FEFECE" filter="url(#f19ymtdlcbnaqe)" points="69,71.1992,179,71.1992,191,83.1992,179,95.1992,69,95.1992,57,83.1992,69,71.1992" style="stroke: #A80036; stroke-width: 1.5;"/><text fill="#000000" font-family="sans-serif" font-size="11" lengthAdjust="spacingAndGlyphs" textLength="110" x="69" y="87.3564">是否已下载 graphviz?</text><text fill="#000000" font-family="sans-serif" font-size="11" lengthAdjust="spacingAndGlyphs" textLength="11" x="46" y="80.8789">是</text><text fill="#000000" font-family="sans-serif" font-size="11" lengthAdjust="spacingAndGlyphs" textLength="11" x="191" y="80.8789">否</text><rect fill="#FEFECE" filter="url(#f19ymtdlcbnaqe)" height="48.2656" rx="12.5" ry="12.5" style="stroke: #A80036; stroke-width: 1.5;" width="74" x="10" y="105.1992"/><text fill="#000000" font-family="sans-serif" font-size="12" lengthAdjust="spacingAndGlyphs" textLength="24" x="20" y="126.8008">执行</text><text fill="#000000" font-family="sans-serif" font-size="12" lengthAdjust="spacingAndGlyphs" textLength="54" x="20" y="140.9336">diagrams</text><rect fill="#FEFECE" filter="url(#f19ymtdlcbnaqe)" height="48.2656" rx="12.5" ry="12.5" style="stroke: #A80036; stroke-width: 1.5;" width="186" x="108" y="105.1992"/><text fill="#000000" font-family="sans-serif" font-size="12" lengthAdjust="spacingAndGlyphs" textLength="166" x="118" y="126.8008">需要下载 graphviz 后才能执行</text><text fill="#000000" font-family="sans-serif" font-size="12" lengthAdjust="spacingAndGlyphs" text-decoration="underline" textLength="39" x="118" y="140.9336">activity</text><line style="stroke: #000000; stroke-width: 1.0;" x1="118" x2="157" y1="142.9336" y2="142.9336"/><text fill="#000000" font-family="sans-serif" font-size="12" lengthAdjust="spacingAndGlyphs" textLength="54" x="161" y="140.9336">diagrams</text><polygon fill="#FEFECE" filter="url(#f19ymtdlcbnaqe)" points="124,159.4648,136,171.4648,124,183.4648,112,171.4648,124,159.4648" style="stroke: #A80036; stroke-width: 1.5;"/><ellipse cx="124" cy="213.4648" fill="none" filter="url(#f19ymtdlcbnaqe)" rx="10" ry="10" style="stroke: #000000; stroke-width: 1.0;"/><ellipse cx="124.5" cy="213.9648" fill="#000000" filter="url(#f19ymtdlcbnaqe)" rx="6" ry="6" style="stroke: none; stroke-width: 1.0;"/><line style="stroke: #A80036; stroke-width: 1.5;" x1="57" x2="47" y1="83.1992" y2="83.1992"/><line style="stroke: #A80036; stroke-width: 1.5;" x1="47" x2="47" y1="83.1992" y2="105.1992"/><polygon fill="#A80036" points="43,95.1992,47,105.1992,51,95.1992,47,99.1992" style="stroke: #A80036; stroke-width: 1.0;"/><line style="stroke: #A80036; stroke-width: 1.5;" x1="191" x2="201" y1="83.1992" y2="83.1992"/><line style="stroke: #A80036; stroke-width: 1.5;" x1="201" x2="201" y1="83.1992" y2="105.1992"/><polygon fill="#A80036" points="197,95.1992,201,105.1992,205,95.1992,201,99.1992" style="stroke: #A80036; stroke-width: 1.0;"/><line style="stroke: #A80036; stroke-width: 1.5;" x1="47" x2="47" y1="153.4648" y2="171.4648"/><line style="stroke: #A80036; stroke-width: 1.5;" x1="47" x2="112" y1="171.4648" y2="171.4648"/><polygon fill="#A80036" points="102,167.4648,112,171.4648,102,175.4648,106,171.4648" style="stroke: #A80036; stroke-width: 1.0;"/><line style="stroke: #A80036; stroke-width: 1.5;" x1="201" x2="201" y1="153.4648" y2="171.4648"/><line style="stroke: #A80036; stroke-width: 1.5;" x1="201" x2="136" y1="171.4648" y2="171.4648"/><polygon fill="#A80036" points="146,167.4648,136,171.4648,146,175.4648,142,171.4648" style="stroke: #A80036; stroke-width: 1.0;"/><line style="stroke: #A80036; stroke-width: 1.5;" x1="124" x2="124" y1="51.1992" y2="71.1992"/><polygon fill="#A80036" points="120,61.1992,124,71.1992,128,61.1992,124,65.1992" style="stroke: #A80036; stroke-width: 1.0;"/><line style="stroke: #A80036; stroke-width: 1.5;" x1="124" x2="124" y1="183.4648" y2="203.4648"/><polygon fill="#A80036" points="120,193.4648,124,203.4648,128,193.4648,124,197.4648" style="stroke: #A80036; stroke-width: 1.0;"/><!--
@startuml

title act_new_3

start
if (是否已下载 graphviz?) then (是)
    :执行 \ndiagrams;
else (否)
    :需要下载 graphviz 后才能执行
    __activity__ diagrams;
endif
stop

@enduml

PlantUML version 1.2017.19(Sun Nov 12 19:46:22 CST 2017)
(GPL source distribution)
Java Runtime: Java(TM) SE Runtime Environment
JVM: Java HotSpot(TM) 64-Bit Server VM
Java Version: 1.8.0_112-b16
Operating System: Mac OS X
OS Version: 10.12.6
Default Encoding: UTF-8
Language: zh
Country: CN
--></g></svg>