<svg contentScriptType="application/ecmascript" contentStyleType="text/css" height="458" preserveAspectRatio="none" viewBox="0 0 280 458" width="280" xmlns="http://www.w3.org/2000/svg" xmlns:xlink="http://www.w3.org/1999/xlink" zoomAndPan="magnify"><filter id="a" height="300%" width="300%" x="-1" y="-1"><feGaussianBlur result="blurOut" stdDeviation="2"/><feColorMatrix in="blurOut" result="blurOut2" type="matrix" values="0 0 0 0 0 0 0 0 0 0 0 0 0 0 0 0 0 0 .4 0"/><feOffset dx="4" dy="4" in="blurOut2" result="blurOut3"/><feBlend in="SourceGraphic" in2="blurOut3" mode="normal"/></filter><text font-family="sans-serif" font-size="14" font-weight="bold" lengthAdjust="spacingAndGlyphs" textLength="50" x="115.5" y="23.5352">seq_12</text><g fill="#fff"><path d="m13 115.2871h255v285.7051h-255z" filter="url(#a)" stroke="#000" stroke-width="2"/><path d="m13 161.9082h255v194.8184h-255z"/><path d="m23 213.1738h235v136.5527h-235z" filter="url(#a)" stroke="#000" stroke-width="2"/><path d="m33 266.7949h169v46.6211h-169z" filter="url(#a)" stroke="#000" stroke-width="2"/><path d="m13 356.7266h255v44.2656h-255z"/></g><path d="m73 68.9766v349.0156" stroke="#a80036" stroke-dasharray="5 5"/><path d="m169 68.9766v349.0156" stroke="#a80036" stroke-dasharray="5 5"/><path d="m225 68.9766v349.0156" stroke="#a80036" stroke-dasharray="5 5"/><path d="m43 33.4883h56v30.4883h-56z" fill="#fefece" filter="url(#a)" stroke="#a80036" stroke-width="1.5"/><text font-family="sans-serif" font-size="14" lengthAdjust="spacingAndGlyphs" textLength="42" x="50" y="54.0234">服务端</text><path d="m43 416.9922h56v30.4883h-56z" fill="#fefece" filter="url(#a)" stroke="#a80036" stroke-width="1.5"/><text font-family="sans-serif" font-size="14" lengthAdjust="spacingAndGlyphs" textLength="42" x="50" y="437.5273">服务端</text><path d="m146 33.4883h42v30.4883h-42z" fill="#fefece" filter="url(#a)" stroke="#a80036" stroke-width="1.5"/><text font-family="sans-serif" font-size="14" lengthAdjust="spacingAndGlyphs" textLength="28" x="153" y="54.0234">客户</text><path d="m146 416.9922h42v30.4883h-42z" fill="#fefece" filter="url(#a)" stroke="#a80036" stroke-width="1.5"/><text font-family="sans-serif" font-size="14" lengthAdjust="spacingAndGlyphs" textLength="28" x="153" y="437.5273">客户</text><path d="m202 33.4883h42v30.4883h-42z" fill="#fefece" filter="url(#a)" stroke="#a80036" stroke-width="1.5"/><text font-family="sans-serif" font-size="14" lengthAdjust="spacingAndGlyphs" textLength="28" x="209" y="54.0234">日志</text><path d="m202 416.9922h42v30.4883h-42z" fill="#fefece" filter="url(#a)" stroke="#a80036" stroke-width="1.5"/><text font-family="sans-serif" font-size="14" lengthAdjust="spacingAndGlyphs" textLength="28" x="209" y="437.5273">日志</text><path d="m157 95.9766 10 4-10 4 4-4z" fill="#a80036" stroke="#a80036"/><path d="m73 99.9766h90" stroke="#a80036"/><text font-family="sans-serif" font-size="13" lengthAdjust="spacingAndGlyphs" textLength="52" x="80" y="95.5449">请求认证</text><path d="m13 115.2871h255v285.7051h-255z" fill="none" stroke="#000" stroke-width="2"/><path d="m13 115.2871h62v7l-10 10h-52z" fill="#eee" stroke="#000" stroke-width="2"/><text font-family="sans-serif" font-size="13" font-weight="bold" lengthAdjust="spacingAndGlyphs" textLength="17" x="28" y="128.8555">alt</text><text font-family="sans-serif" font-size="11" font-weight="bold" lengthAdjust="spacingAndGlyphs" textLength="30" x="90" y="127.9219">[成功]</text><path d="m84 149.5977-10 4 10 4-4-4z" fill="#a80036" stroke="#a80036"/><path d="m78 153.5977h90" stroke="#a80036"/><text font-family="sans-serif" font-size="13" lengthAdjust="spacingAndGlyphs" textLength="52" x="90" y="149.166">许可认证</text><path d="m13 162.9082h255" stroke="#000" stroke-dasharray="2 2"/><text font-family="sans-serif" font-size="11" font-weight="bold" lengthAdjust="spacingAndGlyphs" textLength="96" x="18" y="173.543">[可识别的正常失败]</text><path d="m84 193.8633-10 4 10 4-4-4z" fill="#a80036" stroke="#a80036"/><path d="m78 197.8633h90" stroke="#a80036"/><text font-family="sans-serif" font-size="13" lengthAdjust="spacingAndGlyphs" textLength="52" x="90" y="193.4316">认证失败</text><path d="m23 213.1738h235v136.5527h-235z" fill="none" stroke="#000" stroke-width="2"/><path d="m23 213.1738h84v7l-10 10h-74z" fill="#eee" stroke="#000" stroke-width="2"/><text font-family="sans-serif" font-size="13" font-weight="bold" lengthAdjust="spacingAndGlyphs" textLength="39" x="38" y="226.7422">组名称</text><path d="m213 247.4844 10 4-10 4 4-4z" fill="#a80036" stroke="#a80036"/><path d="m73 251.4844h146" stroke="#a80036"/><text font-family="sans-serif" font-size="13" lengthAdjust="spacingAndGlyphs" textLength="72" x="80" y="247.0527">attack start</text><path d="m33 266.7949h169v46.6211h-169z" fill="none" stroke="#000" stroke-width="2"/><path d="m33 266.7949h74v7l-10 10h-64z" fill="#eee" stroke="#000" stroke-width="2"/><text font-family="sans-serif" font-size="13" font-weight="bold" lengthAdjust="spacingAndGlyphs" textLength="29" x="48" y="280.3633">loop</text><text font-family="sans-serif" font-size="11" font-weight="bold" lengthAdjust="spacingAndGlyphs" textLength="71" x="122" y="279.4297">[1000 times]</text><path d="m157 301.1055 10 4-10 4 4-4z" fill="#a80036" stroke="#a80036"/><path d="m73 305.1055h90" stroke="#a80036"/><text font-family="sans-serif" font-size="13" lengthAdjust="spacingAndGlyphs" textLength="72" x="80" y="300.6738">DNS Attack</text><path d="m213 337.416 10 4-10 4 4-4z" fill="#a80036" stroke="#a80036"/><path d="m73 341.416h146" stroke="#a80036"/><text font-family="sans-serif" font-size="13" lengthAdjust="spacingAndGlyphs" textLength="93" x="80" y="336.9844">Log attack end</text><path d="m13 357.7266h255" stroke="#000" stroke-dasharray="2 2"/><text font-family="sans-serif" font-size="11" font-weight="bold" lengthAdjust="spacingAndGlyphs" textLength="52" x="18" y="368.3613">[其他失败]</text><path d="m84 388.6816-10 4 10 4-4-4z" fill="#a80036" stroke="#a80036"/><path d="m78 392.6816h90" stroke="#a80036"/><text font-family="sans-serif" font-size="13" lengthAdjust="spacingAndGlyphs" textLength="52" x="90" y="388.25">重新请求</text></svg>