<?xml version="1.0" encoding="UTF-8" standalone="no"?><svg xmlns="http://www.w3.org/2000/svg" xmlns:xlink="http://www.w3.org/1999/xlink" contentScriptType="application/ecmascript" contentStyleType="text/css" height="341px" preserveAspectRatio="none" style="width:318px;height:341px;" version="1.1" viewBox="0 0 318 341" width="318px" zoomAndPan="magnify"><defs><filter height="300%" id="fln69pkkxa24u" width="300%" x="-1" y="-1"><feGaussianBlur result="blurOut" stdDeviation="2.0"/><feColorMatrix in="blurOut" result="blurOut2" type="matrix" values="0 0 0 0 0 0 0 0 0 0 0 0 0 0 0 0 0 0 .4 0"/><feOffset dx="4.0" dy="4.0" in="blurOut2" result="blurOut3"/><feBlend in="SourceGraphic" in2="blurOut3" mode="normal"/></filter></defs><g><text fill="#000000" font-family="sans-serif" font-size="14" font-weight="bold" lengthAdjust="spacingAndGlyphs" textLength="41" x="138" y="23.5352">seq_2</text><line style="stroke: #A80036; stroke-width: 1.0; stroke-dasharray: 5.0,5.0;" x1="28" x2="28" y1="116.9766" y2="254.2188"/><line style="stroke: #A80036; stroke-width: 1.0; stroke-dasharray: 5.0,5.0;" x1="131" x2="131" y1="116.9766" y2="254.2188"/><line style="stroke: #A80036; stroke-width: 1.0; stroke-dasharray: 5.0,5.0;" x1="186" x2="186" y1="116.9766" y2="254.2188"/><line style="stroke: #A80036; stroke-width: 1.0; stroke-dasharray: 5.0,5.0;" x1="237" x2="237" y1="116.9766" y2="254.2188"/><line style="stroke: #A80036; stroke-width: 1.0; stroke-dasharray: 5.0,5.0;" x1="288" x2="288" y1="116.9766" y2="254.2188"/><text fill="#000000" font-family="sans-serif" font-size="14" lengthAdjust="spacingAndGlyphs" textLength="35" x="8" y="114.0234">Foo1</text><ellipse cx="28.5" cy="43.4883" fill="#FEFECE" filter="url(#fln69pkkxa24u)" rx="8" ry="8" style="stroke: #A80036; stroke-width: 2.0;"/><path d="M28.5,51.4883 L28.5,78.4883 M15.5,59.4883 L41.5,59.4883 M28.5,78.4883 L15.5,93.4883 M28.5,78.4883 L41.5,93.4883 " fill="#FEFECE" filter="url(#fln69pkkxa24u)" style="stroke: #A80036; stroke-width: 2.0;"/><text fill="#000000" font-family="sans-serif" font-size="14" lengthAdjust="spacingAndGlyphs" textLength="35" x="8" y="266.7539">Foo1</text><ellipse cx="28.5" cy="279.707" fill="#FEFECE" filter="url(#fln69pkkxa24u)" rx="8" ry="8" style="stroke: #A80036; stroke-width: 2.0;"/><path d="M28.5,287.707 L28.5,314.707 M15.5,295.707 L41.5,295.707 M28.5,314.707 L15.5,329.707 M28.5,314.707 L41.5,329.707 " fill="#FEFECE" filter="url(#fln69pkkxa24u)" style="stroke: #A80036; stroke-width: 2.0;"/><text fill="#000000" font-family="sans-serif" font-size="14" lengthAdjust="spacingAndGlyphs" textLength="35" x="111" y="114.0234">Foo2</text><path d="M111,72.4883 L111,96.4883 M111,84.4883 L128,84.4883 " fill="#FEFECE" filter="url(#fln69pkkxa24u)" style="stroke: #A80036; stroke-width: 2.0;"/><ellipse cx="140" cy="84.4883" fill="#FEFECE" filter="url(#fln69pkkxa24u)" rx="12" ry="12" style="stroke: #A80036; stroke-width: 2.0;"/><text fill="#000000" font-family="sans-serif" font-size="14" lengthAdjust="spacingAndGlyphs" textLength="35" x="111" y="266.7539">Foo2</text><path d="M111,273.707 L111,297.707 M111,285.707 L128,285.707 " fill="#FEFECE" filter="url(#fln69pkkxa24u)" style="stroke: #A80036; stroke-width: 2.0;"/><ellipse cx="140" cy="285.707" fill="#FEFECE" filter="url(#fln69pkkxa24u)" rx="12" ry="12" style="stroke: #A80036; stroke-width: 2.0;"/><text fill="#000000" font-family="sans-serif" font-size="14" lengthAdjust="spacingAndGlyphs" textLength="35" x="166" y="114.0234">Foo3</text><ellipse cx="186.5" cy="84.4883" fill="#FEFECE" filter="url(#fln69pkkxa24u)" rx="12" ry="12" style="stroke: #A80036; stroke-width: 2.0;"/><polygon fill="#A80036" points="182.5,72.4883,188.5,67.4883,186.5,72.4883,188.5,77.4883,182.5,72.4883" style="stroke: #A80036; stroke-width: 1.0;"/><text fill="#000000" font-family="sans-serif" font-size="14" lengthAdjust="spacingAndGlyphs" textLength="35" x="166" y="266.7539">Foo3</text><ellipse cx="186.5" cy="285.707" fill="#FEFECE" filter="url(#fln69pkkxa24u)" rx="12" ry="12" style="stroke: #A80036; stroke-width: 2.0;"/><polygon fill="#A80036" points="182.5,273.707,188.5,268.707,186.5,273.707,188.5,278.707,182.5,273.707" style="stroke: #A80036; stroke-width: 1.0;"/><text fill="#000000" font-family="sans-serif" font-size="14" lengthAdjust="spacingAndGlyphs" textLength="35" x="217" y="114.0234">Foo4</text><ellipse cx="237.5" cy="84.4883" fill="#FEFECE" filter="url(#fln69pkkxa24u)" rx="12" ry="12" style="stroke: #A80036; stroke-width: 2.0;"/><line style="stroke: #A80036; stroke-width: 2.0;" x1="225.5" x2="249.5" y1="98.4883" y2="98.4883"/><text fill="#000000" font-family="sans-serif" font-size="14" lengthAdjust="spacingAndGlyphs" textLength="35" x="217" y="266.7539">Foo4</text><ellipse cx="237.5" cy="285.707" fill="#FEFECE" filter="url(#fln69pkkxa24u)" rx="12" ry="12" style="stroke: #A80036; stroke-width: 2.0;"/><line style="stroke: #A80036; stroke-width: 2.0;" x1="225.5" x2="249.5" y1="299.707" y2="299.707"/><text fill="#000000" font-family="sans-serif" font-size="14" lengthAdjust="spacingAndGlyphs" textLength="35" x="268" y="114.0234">Foo5</text><path d="M270.5,64.4883 C270.5,54.4883 288.5,54.4883 288.5,54.4883 C288.5,54.4883 306.5,54.4883 306.5,64.4883 L306.5,90.4883 C306.5,100.4883 288.5,100.4883 288.5,100.4883 C288.5,100.4883 270.5,100.4883 270.5,90.4883 L270.5,64.4883 " fill="#FEFECE" filter="url(#fln69pkkxa24u)" style="stroke: #000000; stroke-width: 1.5;"/><path d="M270.5,64.4883 C270.5,74.4883 288.5,74.4883 288.5,74.4883 C288.5,74.4883 306.5,74.4883 306.5,64.4883 " fill="none" style="stroke: #000000; stroke-width: 1.5;"/><text fill="#000000" font-family="sans-serif" font-size="14" lengthAdjust="spacingAndGlyphs" textLength="35" x="268" y="266.7539">Foo5</text><path d="M270.5,279.707 C270.5,269.707 288.5,269.707 288.5,269.707 C288.5,269.707 306.5,269.707 306.5,279.707 L306.5,305.707 C306.5,315.707 288.5,315.707 288.5,315.707 C288.5,315.707 270.5,315.707 270.5,305.707 L270.5,279.707 " fill="#FEFECE" filter="url(#fln69pkkxa24u)" style="stroke: #000000; stroke-width: 1.5;"/><path d="M270.5,279.707 C270.5,289.707 288.5,289.707 288.5,289.707 C288.5,289.707 306.5,289.707 306.5,279.707 " fill="none" style="stroke: #000000; stroke-width: 1.5;"/><polygon fill="#A80036" points="119.5,143.9766,129.5,147.9766,119.5,151.9766,123.5,147.9766" style="stroke: #A80036; stroke-width: 1.0;"/><line style="stroke: #A80036; stroke-width: 1.0;" x1="28.5" x2="125.5" y1="147.9766" y2="147.9766"/><text fill="#000000" font-family="sans-serif" font-size="13" lengthAdjust="spacingAndGlyphs" textLength="79" x="35.5" y="143.5449">To boundary</text><polygon fill="#A80036" points="174.5,173.2871,184.5,177.2871,174.5,181.2871,178.5,177.2871" style="stroke: #A80036; stroke-width: 1.0;"/><line style="stroke: #A80036; stroke-width: 1.0;" x1="28.5" x2="180.5" y1="177.2871" y2="177.2871"/><text fill="#000000" font-family="sans-serif" font-size="13" lengthAdjust="spacingAndGlyphs" textLength="65" x="35.5" y="172.8555">To control</text><polygon fill="#A80036" points="225.5,202.5977,235.5,206.5977,225.5,210.5977,229.5,206.5977" style="stroke: #A80036; stroke-width: 1.0;"/><line style="stroke: #A80036; stroke-width: 1.0;" x1="28.5" x2="231.5" y1="206.5977" y2="206.5977"/><text fill="#000000" font-family="sans-serif" font-size="13" lengthAdjust="spacingAndGlyphs" textLength="56" x="35.5" y="202.166">To entity</text><polygon fill="#A80036" points="276.5,231.9082,286.5,235.9082,276.5,239.9082,280.5,235.9082" style="stroke: #A80036; stroke-width: 1.0;"/><line style="stroke: #A80036; stroke-width: 1.0;" x1="28.5" x2="282.5" y1="235.9082" y2="235.9082"/><text fill="#000000" font-family="sans-serif" font-size="13" lengthAdjust="spacingAndGlyphs" textLength="76" x="35.5" y="231.4766">To database</text><!--
@startuml
title seq_2 

actor Foo1
boundary Foo2
control Foo3
entity Foo4
database Foo5
Foo1 -> Foo2 : To boundary
Foo1 -> Foo3 : To control
Foo1 -> Foo4 : To entity
Foo1 -> Foo5 : To database

@enduml

PlantUML version 1.2017.19(Sun Nov 12 19:46:22 CST 2017)
(GPL source distribution)
Java Runtime: Java(TM) SE Runtime Environment
JVM: Java HotSpot(TM) 64-Bit Server VM
Java Version: 1.8.0_112-b16
Operating System: Mac OS X
OS Version: 10.12.6
Default Encoding: UTF-8
Language: zh
Country: CN
--></g></svg>