<?xml version="1.0" encoding="UTF-8" standalone="no"?><svg xmlns="http://www.w3.org/2000/svg" xmlns:xlink="http://www.w3.org/1999/xlink" contentScriptType="application/ecmascript" contentStyleType="text/css" height="278px" preserveAspectRatio="none" style="width:384px;height:278px;" version="1.1" viewBox="0 0 384 278" width="384px" zoomAndPan="magnify"><defs><filter height="300%" id="f1drq3y9t83mz3" width="300%" x="-1" y="-1"><feGaussianBlur result="blurOut" stdDeviation="2.0"/><feColorMatrix in="blurOut" result="blurOut2" type="matrix" values="0 0 0 0 0 0 0 0 0 0 0 0 0 0 0 0 0 0 .4 0"/><feOffset dx="4.0" dy="4.0" in="blurOut2" result="blurOut3"/><feBlend in="SourceGraphic" in2="blurOut3" mode="normal"/></filter></defs><g><text fill="#000000" font-family="sans-serif" font-size="14" font-weight="bold" lengthAdjust="spacingAndGlyphs" textLength="50" x="164.5" y="23.5352">seq_13</text><line style="stroke: #A80036; stroke-width: 1.0; stroke-dasharray: 5.0,5.0;" x1="150" x2="150" y1="68.9766" y2="237.5293"/><line style="stroke: #A80036; stroke-width: 1.0; stroke-dasharray: 5.0,5.0;" x1="213" x2="213" y1="68.9766" y2="237.5293"/><rect fill="#FEFECE" filter="url(#f1drq3y9t83mz3)" height="30.4883" style="stroke: #A80036; stroke-width: 1.5;" width="56" x="120" y="33.4883"/><text fill="#000000" font-family="sans-serif" font-size="14" lengthAdjust="spacingAndGlyphs" textLength="42" x="127" y="54.0234">服务端</text><rect fill="#FEFECE" filter="url(#f1drq3y9t83mz3)" height="30.4883" style="stroke: #A80036; stroke-width: 1.5;" width="56" x="120" y="236.5293"/><text fill="#000000" font-family="sans-serif" font-size="14" lengthAdjust="spacingAndGlyphs" textLength="42" x="127" y="257.0645">服务端</text><rect fill="#FEFECE" filter="url(#f1drq3y9t83mz3)" height="30.4883" style="stroke: #A80036; stroke-width: 1.5;" width="42" x="190" y="33.4883"/><text fill="#000000" font-family="sans-serif" font-size="14" lengthAdjust="spacingAndGlyphs" textLength="28" x="197" y="54.0234">客户</text><rect fill="#FEFECE" filter="url(#f1drq3y9t83mz3)" height="30.4883" style="stroke: #A80036; stroke-width: 1.5;" width="42" x="190" y="236.5293"/><text fill="#000000" font-family="sans-serif" font-size="14" lengthAdjust="spacingAndGlyphs" textLength="28" x="197" y="257.0645">客户</text><polygon fill="#A80036" points="201,100.9766,211,104.9766,201,108.9766,205,104.9766" style="stroke: #A80036; stroke-width: 1.0;"/><line style="stroke: #A80036; stroke-width: 1.0;" x1="150" x2="207" y1="104.9766" y2="104.9766"/><text fill="#000000" font-family="sans-serif" font-size="13" lengthAdjust="spacingAndGlyphs" textLength="31" x="157" y="100.5449">hello</text><polygon fill="#FBFB77" filter="url(#f1drq3y9t83mz3)" points="8,83.9766,8,108.9766,141,108.9766,141,93.9766,131,83.9766,8,83.9766" style="stroke: #A80036; stroke-width: 1.0;"/><line style="stroke: #A80036; stroke-width: 1.0;" x1="131" x2="131" y1="83.9766" y2="93.9766"/><line style="stroke: #A80036; stroke-width: 1.0;" x1="141" x2="131" y1="93.9766" y2="93.9766"/><text fill="#000000" font-family="sans-serif" font-size="13" lengthAdjust="spacingAndGlyphs" textLength="112" x="14" y="101.5449">this is a first note</text><polygon fill="#A80036" points="161,140.2871,151,144.2871,161,148.2871,157,144.2871" style="stroke: #A80036; stroke-width: 1.0;"/><line style="stroke: #A80036; stroke-width: 1.0;" x1="155" x2="212" y1="144.2871" y2="144.2871"/><text fill="#000000" font-family="sans-serif" font-size="13" lengthAdjust="spacingAndGlyphs" textLength="16" x="167" y="139.8555">ok</text><polygon fill="#FBFB77" filter="url(#f1drq3y9t83mz3)" points="218,123.2871,218,148.2871,362,148.2871,362,133.2871,352,123.2871,218,123.2871" style="stroke: #A80036; stroke-width: 1.0;"/><line style="stroke: #A80036; stroke-width: 1.0;" x1="352" x2="352" y1="123.2871" y2="133.2871"/><line style="stroke: #A80036; stroke-width: 1.0;" x1="362" x2="352" y1="133.2871" y2="133.2871"/><text fill="#000000" font-family="sans-serif" font-size="13" lengthAdjust="spacingAndGlyphs" textLength="123" x="224" y="140.8555">this is another note</text><line style="stroke: #A80036; stroke-width: 1.0;" x1="213" x2="255" y1="192.7188" y2="192.7188"/><line style="stroke: #A80036; stroke-width: 1.0;" x1="255" x2="255" y1="192.7188" y2="205.7188"/><line style="stroke: #A80036; stroke-width: 1.0;" x1="214" x2="255" y1="205.7188" y2="205.7188"/><polygon fill="#A80036" points="224,201.7188,214,205.7188,224,209.7188,220,205.7188" style="stroke: #A80036; stroke-width: 1.0;"/><text fill="#000000" font-family="sans-serif" font-size="13" lengthAdjust="spacingAndGlyphs" textLength="84" x="220" y="187.9766">I am thinking</text><polygon fill="#FBFB77" filter="url(#f1drq3y9t83mz3)" points="61,162.5977,61,217.5977,204,217.5977,204,172.5977,194,162.5977,61,162.5977" style="stroke: #A80036; stroke-width: 1.0;"/><line style="stroke: #A80036; stroke-width: 1.0;" x1="194" x2="194" y1="162.5977" y2="172.5977"/><line style="stroke: #A80036; stroke-width: 1.0;" x1="204" x2="194" y1="172.5977" y2="172.5977"/><text fill="#000000" font-family="sans-serif" font-size="13" lengthAdjust="spacingAndGlyphs" textLength="39" x="67" y="180.166">a note</text><text fill="#000000" font-family="sans-serif" font-size="13" lengthAdjust="spacingAndGlyphs" textLength="122" x="67" y="195.4766">can also be defined</text><text fill="#000000" font-family="sans-serif" font-size="13" lengthAdjust="spacingAndGlyphs" textLength="98" x="67" y="210.7871">on several lines</text><!--
@startuml
title seq_13

服务端->客户 : hello
note left: this is a first note

客户->服务端 : ok
note right: this is another note

客户->客户 : I am thinking
note left
    a note
    can also be defined
    on several lines
end note
@enduml

PlantUML version 1.2017.19(Sun Nov 12 19:46:22 CST 2017)
(GPL source distribution)
Java Runtime: Java(TM) SE Runtime Environment
JVM: Java HotSpot(TM) 64-Bit Server VM
Java Version: 1.8.0_112-b16
Operating System: Mac OS X
OS Version: 10.12.6
Default Encoding: UTF-8
Language: zh
Country: CN
--></g></svg>